solid OpenSCAD_Model
  facet normal -0.707107 -0.707107 0
    outer loop
      vertex 0 2.94628 0
      vertex 2.84483 0.10145 0.2
      vertex 0 2.94628 3.00419
    endloop
  endfacet
  facet normal -0.707107 -0.707107 -5.51752e-06
    outer loop
      vertex 2.91667 0.0296116 0
      vertex 2.84483 0.10145 0.2
      vertex 0 2.94628 0
    endloop
  endfacet
  facet normal -0.707099 -0.707115 0
    outer loop
      vertex 2.84483 0.10145 0.2
      vertex 2.91667 0.0296116 0
      vertex 2.91667 0.0296116 0.2
    endloop
  endfacet
  facet normal 0 0 -1
    outer loop
      vertex 17.5 2.94628 0
      vertex 10.1545 11.5245 0
      vertex 10.5 12 0
    endloop
  endfacet
  facet normal 0 0 -1
    outer loop
      vertex 5.83333 2.94628 0
      vertex 10.1545 11.5245 0
      vertex 11.6667 2.94628 0
    endloop
  endfacet
  facet normal -0 0 -1
    outer loop
      vertex 10.1545 11.5245 0
      vertex 5.83333 2.94628 0
      vertex 9.59549 11.7061 0
    endloop
  endfacet
  facet normal 0 0 -1
    outer loop
      vertex 5.83333 2.94628 0
      vertex 11.6667 2.94628 0
      vertex 8.75 0.0296121 0
    endloop
  endfacet
  facet normal 0 0 -1
    outer loop
      vertex 46.6667 2.94628 0
      vertex 40.1545 11.5245 0
      vertex 40.5 12 0
    endloop
  endfacet
  facet normal 0 0 -1
    outer loop
      vertex 40.8333 2.94628 0
      vertex 39.5955 11.7061 0
      vertex 40.1545 11.5245 0
    endloop
  endfacet
  facet normal 0 0 -1
    outer loop
      vertex 40.8333 2.94628 0
      vertex 35 2.94628 0
      vertex 39.5955 11.7061 0
    endloop
  endfacet
  facet normal 0 0 -1
    outer loop
      vertex 35 2.94628 0
      vertex 40.8333 2.94628 0
      vertex 37.9167 0.0296116 0
    endloop
  endfacet
  facet normal 0 0 -1
    outer loop
      vertex 46.6667 2.94628 0
      vertex 50 0.446278 0
      vertex 49.5833 0.0296116 0
    endloop
  endfacet
  facet normal 0 0 -1
    outer loop
      vertex 50 0.446278 0
      vertex 46.6667 2.94628 0
      vertex 50 17 0
    endloop
  endfacet
  facet normal 0 0 -1
    outer loop
      vertex 40.8333 2.94628 0
      vertex 46.6667 2.94628 0
      vertex 43.75 0.0296121 0
    endloop
  endfacet
  facet normal 0 0 -1
    outer loop
      vertex 40.1545 11.5245 0
      vertex 46.6667 2.94628 0
      vertex 40.8333 2.94628 0
    endloop
  endfacet
  facet normal 0 0 -1
    outer loop
      vertex 46.6667 2.94628 0
      vertex 40.5 12 0
      vertex 50 17 0
    endloop
  endfacet
  facet normal 0 0 -1
    outer loop
      vertex 40.1545 12.4755 0
      vertex 50 17 0
      vertex 40.5 12 0
    endloop
  endfacet
  facet normal 0 0 -1
    outer loop
      vertex 39.5955 12.2939 0
      vertex 50 17 0
      vertex 40.1545 12.4755 0
    endloop
  endfacet
  facet normal 0 0 -1
    outer loop
      vertex 29.1667 2.94628 0
      vertex 39.5955 11.7061 0
      vertex 35 2.94628 0
    endloop
  endfacet
  facet normal 0 0 -1
    outer loop
      vertex 29.1667 2.94628 0
      vertex 35 2.94628 0
      vertex 32.0833 0.0296116 0
    endloop
  endfacet
  facet normal -0 0 -1
    outer loop
      vertex 39.5955 11.7061 0
      vertex 29.1667 2.94628 0
      vertex 39.5955 12.2939 0
    endloop
  endfacet
  facet normal 0 0 -1
    outer loop
      vertex 23.3333 2.94628 0
      vertex 29.1667 2.94628 0
      vertex 26.25 0.0296121 0
    endloop
  endfacet
  facet normal 0 0 -1
    outer loop
      vertex 23.3333 2.94628 0
      vertex 39.5955 12.2939 0
      vertex 29.1667 2.94628 0
    endloop
  endfacet
  facet normal 0 0 -1
    outer loop
      vertex 17.5 2.94628 0
      vertex 23.3333 2.94628 0
      vertex 20.4167 0.0296116 0
    endloop
  endfacet
  facet normal 0 0 -1
    outer loop
      vertex 10.5 12 0
      vertex 23.3333 2.94628 0
      vertex 17.5 2.94628 0
    endloop
  endfacet
  facet normal 0 0 -1
    outer loop
      vertex 23.3333 2.94628 0
      vertex 10.5 12 0
      vertex 39.5955 12.2939 0
    endloop
  endfacet
  facet normal 0 0 -1
    outer loop
      vertex 11.6667 2.94628 0
      vertex 17.5 2.94628 0
      vertex 14.5833 0.0296116 0
    endloop
  endfacet
  facet normal 0 0 -1
    outer loop
      vertex 10.1545 11.5245 0
      vertex 17.5 2.94628 0
      vertex 11.6667 2.94628 0
    endloop
  endfacet
  facet normal 0 0 -1
    outer loop
      vertex 10.1545 12.4755 0
      vertex 39.5955 12.2939 0
      vertex 10.5 12 0
    endloop
  endfacet
  facet normal 0 0 -1
    outer loop
      vertex 39.5955 12.2939 0
      vertex 10.1545 12.4755 0
      vertex 50 17 0
    endloop
  endfacet
  facet normal 0 0 -1
    outer loop
      vertex 0 2.94628 0
      vertex 9.59549 11.7061 0
      vertex 5.83333 2.94628 0
    endloop
  endfacet
  facet normal 0 0 -1
    outer loop
      vertex 0 2.94628 0
      vertex 5.83333 2.94628 0
      vertex 2.91667 0.0296116 0
    endloop
  endfacet
  facet normal 0 0 -1
    outer loop
      vertex 0 17 0
      vertex 9.59549 11.7061 0
      vertex 0 2.94628 0
    endloop
  endfacet
  facet normal 0 0 -1
    outer loop
      vertex 10.1545 12.4755 0
      vertex 0 17 0
      vertex 50 17 0
    endloop
  endfacet
  facet normal 0 0 -1
    outer loop
      vertex 9.59549 12.2939 0
      vertex 0 17 0
      vertex 10.1545 12.4755 0
    endloop
  endfacet
  facet normal 0 0 -1
    outer loop
      vertex 9.59549 11.7061 0
      vertex 0 17 0
      vertex 9.59549 12.2939 0
    endloop
  endfacet
  facet normal 0.707148 -0.707065 0
    outer loop
      vertex 2.91667 0.0296116 0.2
      vertex 2.91667 0.0296116 0
      vertex 2.9885 0.10145 0.2
    endloop
  endfacet
  facet normal 0.707108 -0.707106 2.8967e-05
    outer loop
      vertex 5.83333 2.94628 0
      vertex 2.9885 0.10145 0.2
      vertex 2.91667 0.0296116 0
    endloop
  endfacet
  facet normal 0.707107 -0.707107 0
    outer loop
      vertex 2.9885 0.10145 0.2
      vertex 5.83333 2.94628 0
      vertex 5.83333 2.94628 3.00419
    endloop
  endfacet
  facet normal -0.707107 -0.707107 0
    outer loop
      vertex 5.83333 2.94628 0
      vertex 8.67816 0.10145 0.2
      vertex 5.83333 2.94628 3.00419
    endloop
  endfacet
  facet normal -0.707107 -0.707107 -7.24175e-06
    outer loop
      vertex 8.75 0.0296121 0
      vertex 8.67816 0.10145 0.2
      vertex 5.83333 2.94628 0
    endloop
  endfacet
  facet normal -0.707096 -0.707117 0
    outer loop
      vertex 8.67816 0.10145 0.2
      vertex 8.75 0.0296121 0
      vertex 8.75 0.0296121 0.2
    endloop
  endfacet
  facet normal -0.707111 -0.707103 0
    outer loop
      vertex 11.6667 2.94628 0
      vertex 14.5115 0.10145 0.2
      vertex 11.6667 2.94628 3.00419
    endloop
  endfacet
  facet normal -0.707115 -0.707098 0.00012981
    outer loop
      vertex 14.5833 0.0296116 0
      vertex 14.5115 0.10145 0.2
      vertex 11.6667 2.94628 0
    endloop
  endfacet
  facet normal -0.707296 -0.706918 0
    outer loop
      vertex 14.5115 0.10145 0.2
      vertex 14.5833 0.0296116 0
      vertex 14.5833 0.0296116 0.2
    endloop
  endfacet
  facet normal 0.707096 -0.707117 0
    outer loop
      vertex 8.75 0.0296121 0.2
      vertex 8.75 0.0296121 0
      vertex 8.82184 0.10145 0.2
    endloop
  endfacet
  facet normal 0.707103 -0.707111 -4.62931e-06
    outer loop
      vertex 11.6667 2.94628 0
      vertex 8.82184 0.10145 0.2
      vertex 8.75 0.0296121 0
    endloop
  endfacet
  facet normal 0.707103 -0.707111 0
    outer loop
      vertex 8.82184 0.10145 0.2
      vertex 11.6667 2.94628 0
      vertex 11.6667 2.94628 3.00419
    endloop
  endfacet
  facet normal 0.706804 -0.70741 0
    outer loop
      vertex 14.5833 0.0296116 0.2
      vertex 14.5833 0.0296116 0
      vertex 14.6552 0.10145 0.2
    endloop
  endfacet
  facet normal 0.707103 -0.707111 -0.000215036
    outer loop
      vertex 17.5 2.94628 0
      vertex 14.6552 0.10145 0.2
      vertex 14.5833 0.0296116 0
    endloop
  endfacet
  facet normal 0.707111 -0.707103 0
    outer loop
      vertex 14.6552 0.10145 0.2
      vertex 17.5 2.94628 0
      vertex 17.5 2.94628 3.00419
    endloop
  endfacet
  facet normal -0.707111 -0.707103 0
    outer loop
      vertex 17.5 2.94628 0
      vertex 20.3448 0.10145 0.2
      vertex 17.5 2.94628 3.00419
    endloop
  endfacet
  facet normal -0.707103 -0.707111 -0.000215036
    outer loop
      vertex 20.4167 0.0296116 0
      vertex 20.3448 0.10145 0.2
      vertex 17.5 2.94628 0
    endloop
  endfacet
  facet normal -0.706804 -0.70741 0
    outer loop
      vertex 20.3448 0.10145 0.2
      vertex 20.4167 0.0296116 0
      vertex 20.4167 0.0296116 0.2
    endloop
  endfacet
  facet normal -0.707098 -0.707115 0
    outer loop
      vertex 23.3333 2.94628 0
      vertex 26.1782 0.10145 0.2
      vertex 23.3333 2.94628 3.00419
    endloop
  endfacet
  facet normal -0.707103 -0.707111 0.000136791
    outer loop
      vertex 26.25 0.0296121 0
      vertex 26.1782 0.10145 0.2
      vertex 23.3333 2.94628 0
    endloop
  endfacet
  facet normal -0.707293 -0.70692 0
    outer loop
      vertex 26.1782 0.10145 0.2
      vertex 26.25 0.0296121 0
      vertex 26.25 0.0296121 0.2
    endloop
  endfacet
  facet normal 0.707111 -0.707103 0
    outer loop
      vertex 20.4885 0.10145 0.2
      vertex 23.3333 2.94628 0
      vertex 23.3333 2.94628 3.00419
    endloop
  endfacet
  facet normal 0.707296 -0.706918 0
    outer loop
      vertex 20.4167 0.0296116 0
      vertex 20.4885 0.10145 0.2
      vertex 20.4167 0.0296116 0.2
    endloop
  endfacet
  facet normal 0.707115 -0.707098 0.00012981
    outer loop
      vertex 20.4885 0.10145 0.2
      vertex 20.4167 0.0296116 0
      vertex 23.3333 2.94628 0
    endloop
  endfacet
  facet normal 0.707293 -0.70692 0
    outer loop
      vertex 26.25 0.0296121 0.2
      vertex 26.25 0.0296121 0
      vertex 26.3218 0.10145 0.2
    endloop
  endfacet
  facet normal 0.707103 -0.707111 0.000136791
    outer loop
      vertex 29.1667 2.94628 0
      vertex 26.3218 0.10145 0.2
      vertex 26.25 0.0296121 0
    endloop
  endfacet
  facet normal 0.707098 -0.707115 0
    outer loop
      vertex 26.3218 0.10145 0.2
      vertex 29.1667 2.94628 0
      vertex 29.1667 2.94628 3.00419
    endloop
  endfacet
  facet normal -0.707111 -0.707103 0
    outer loop
      vertex 29.1667 2.94628 0
      vertex 32.0115 0.10145 0.2
      vertex 29.1667 2.94628 3.00419
    endloop
  endfacet
  facet normal -0.707115 -0.707098 0.00012981
    outer loop
      vertex 32.0833 0.0296116 0
      vertex 32.0115 0.10145 0.2
      vertex 29.1667 2.94628 0
    endloop
  endfacet
  facet normal -0.707296 -0.706918 0
    outer loop
      vertex 32.0115 0.10145 0.2
      vertex 32.0833 0.0296116 0
      vertex 32.0833 0.0296116 0.2
    endloop
  endfacet
  facet normal -0.707111 -0.707103 0
    outer loop
      vertex 35 2.94628 0
      vertex 37.8448 0.10145 0.2
      vertex 35 2.94628 3.00419
    endloop
  endfacet
  facet normal -0.707103 -0.707111 -0.000215036
    outer loop
      vertex 37.9167 0.0296116 0
      vertex 37.8448 0.10145 0.2
      vertex 35 2.94628 0
    endloop
  endfacet
  facet normal -0.706804 -0.70741 0
    outer loop
      vertex 37.8448 0.10145 0.2
      vertex 37.9167 0.0296116 0
      vertex 37.9167 0.0296116 0.2
    endloop
  endfacet
  facet normal 0.706804 -0.70741 0
    outer loop
      vertex 32.0833 0.0296116 0.2
      vertex 32.0833 0.0296116 0
      vertex 32.1552 0.10145 0.2
    endloop
  endfacet
  facet normal 0.707103 -0.707111 -0.000215036
    outer loop
      vertex 35 2.94628 0
      vertex 32.1552 0.10145 0.2
      vertex 32.0833 0.0296116 0
    endloop
  endfacet
  facet normal 0.707111 -0.707103 0
    outer loop
      vertex 32.1552 0.10145 0.2
      vertex 35 2.94628 0
      vertex 35 2.94628 3.00419
    endloop
  endfacet
  facet normal 0.707111 -0.707103 0
    outer loop
      vertex 37.9885 0.10145 0.2
      vertex 40.8333 2.94628 0
      vertex 40.8333 2.94628 3.00419
    endloop
  endfacet
  facet normal 0.707296 -0.706918 0
    outer loop
      vertex 37.9167 0.0296116 0
      vertex 37.9885 0.10145 0.2
      vertex 37.9167 0.0296116 0.2
    endloop
  endfacet
  facet normal 0.707115 -0.707098 0.00012981
    outer loop
      vertex 37.9885 0.10145 0.2
      vertex 37.9167 0.0296116 0
      vertex 40.8333 2.94628 0
    endloop
  endfacet
  facet normal -0.707098 -0.707115 0
    outer loop
      vertex 40.8333 2.94628 0
      vertex 43.6782 0.10145 0.2
      vertex 40.8333 2.94628 3.00419
    endloop
  endfacet
  facet normal -0.707103 -0.707111 0.000136791
    outer loop
      vertex 43.75 0.0296121 0
      vertex 43.6782 0.10145 0.2
      vertex 40.8333 2.94628 0
    endloop
  endfacet
  facet normal -0.707293 -0.70692 0
    outer loop
      vertex 43.6782 0.10145 0.2
      vertex 43.75 0.0296121 0
      vertex 43.75 0.0296121 0.2
    endloop
  endfacet
  facet normal -0.707111 -0.707103 0
    outer loop
      vertex 46.6667 2.94628 0
      vertex 49.5115 0.10145 0.2
      vertex 46.6667 2.94628 3.00419
    endloop
  endfacet
  facet normal -0.707115 -0.707098 0.00012981
    outer loop
      vertex 49.5833 0.0296116 0
      vertex 49.5115 0.10145 0.2
      vertex 46.6667 2.94628 0
    endloop
  endfacet
  facet normal -0.707296 -0.706918 0
    outer loop
      vertex 49.5115 0.10145 0.2
      vertex 49.5833 0.0296116 0
      vertex 49.5833 0.0296116 0.2
    endloop
  endfacet
  facet normal 0.707098 -0.707115 0
    outer loop
      vertex 43.8218 0.10145 0.2
      vertex 46.6667 2.94628 0
      vertex 46.6667 2.94628 3.00419
    endloop
  endfacet
  facet normal 0.707293 -0.70692 0
    outer loop
      vertex 43.75 0.0296121 0
      vertex 43.8218 0.10145 0.2
      vertex 43.75 0.0296121 0.2
    endloop
  endfacet
  facet normal 0.707103 -0.707111 0.000136791
    outer loop
      vertex 43.8218 0.10145 0.2
      vertex 43.75 0.0296121 0
      vertex 46.6667 2.94628 0
    endloop
  endfacet
  facet normal 0.706804 -0.70741 0
    outer loop
      vertex 49.5833 0.0296116 0.2
      vertex 49.5833 0.0296116 0
      vertex 49.6552 0.10145 0.2
    endloop
  endfacet
  facet normal 0.707078 -0.707135 -0.000197299
    outer loop
      vertex 50 0.446278 0
      vertex 49.6552 0.10145 0.2
      vertex 49.5833 0.0296116 0
    endloop
  endfacet
  facet normal 0.707135 -0.707078 0
    outer loop
      vertex 49.6552 0.10145 0.2
      vertex 50 0.446278 0
      vertex 50 0.446278 0.539903
    endloop
  endfacet
  facet normal 1 0 0
    outer loop
      vertex 50 7.1 7
      vertex 50 7 7
      vertex 50 7.1 1.2
    endloop
  endfacet
  facet normal 1 -0 0
    outer loop
      vertex 50 7.1 1.2
      vertex 50 17 0
      vertex 50 17 1.2
    endloop
  endfacet
  facet normal 1 0 0
    outer loop
      vertex 50 0.446278 0.539903
      vertex 50 7.1 1.2
      vertex 50 7 7
    endloop
  endfacet
  facet normal 1 0 0
    outer loop
      vertex 50 0.446278 0
      vertex 50 7.1 1.2
      vertex 50 0.446278 0.539903
    endloop
  endfacet
  facet normal 1 0 0
    outer loop
      vertex 50 7.1 1.2
      vertex 50 0.446278 0
      vertex 50 17 0
    endloop
  endfacet
  facet normal 0 0 1
    outer loop
      vertex 2.9885 0.10145 0.2
      vertex 2.84483 0.10145 0.2
      vertex 2.91667 0.0296116 0.2
    endloop
  endfacet
  facet normal 0 0 1
    outer loop
      vertex 8.82184 0.10145 0.2
      vertex 8.67816 0.10145 0.2
      vertex 8.75 0.0296121 0.2
    endloop
  endfacet
  facet normal 0 0 1
    outer loop
      vertex 14.6552 0.10145 0.2
      vertex 14.5115 0.10145 0.2
      vertex 14.5833 0.0296116 0.2
    endloop
  endfacet
  facet normal 0 0 1
    outer loop
      vertex 20.4885 0.10145 0.2
      vertex 20.3448 0.10145 0.2
      vertex 20.4167 0.0296116 0.2
    endloop
  endfacet
  facet normal 0 0 1
    outer loop
      vertex 26.3218 0.10145 0.2
      vertex 26.1782 0.10145 0.2
      vertex 26.25 0.0296121 0.2
    endloop
  endfacet
  facet normal 0 0 1
    outer loop
      vertex 32.1552 0.10145 0.2
      vertex 32.0115 0.10145 0.2
      vertex 32.0833 0.0296116 0.2
    endloop
  endfacet
  facet normal 0 0 1
    outer loop
      vertex 37.9885 0.10145 0.2
      vertex 37.8448 0.10145 0.2
      vertex 37.9167 0.0296116 0.2
    endloop
  endfacet
  facet normal 0 0 1
    outer loop
      vertex 43.8218 0.10145 0.2
      vertex 43.6782 0.10145 0.2
      vertex 43.75 0.0296121 0.2
    endloop
  endfacet
  facet normal 0 0 1
    outer loop
      vertex 49.6552 0.10145 0.2
      vertex 49.5115 0.10145 0.2
      vertex 49.5833 0.0296116 0.2
    endloop
  endfacet
  facet normal -1 0 0
    outer loop
      vertex 0 17 0
      vertex 0 7.1 1.2
      vertex 0 17 1.2
    endloop
  endfacet
  facet normal -1 0 0
    outer loop
      vertex 0 7.1 1.2
      vertex 0 7 7
      vertex 0 7.1 7
    endloop
  endfacet
  facet normal -1 0 0
    outer loop
      vertex 0 2.94628 0
      vertex 0 7.1 1.2
      vertex 0 17 0
    endloop
  endfacet
  facet normal -1 0 0
    outer loop
      vertex 0 2.94628 3.00419
      vertex 0 7.1 1.2
      vertex 0 2.94628 0
    endloop
  endfacet
  facet normal -1 0 0
    outer loop
      vertex 0 7.1 1.2
      vertex 0 2.94628 3.00419
      vertex 0 7 7
    endloop
  endfacet
  facet normal 0 1 -0
    outer loop
      vertex 50 17 0
      vertex 0 17 1.2
      vertex 50 17 1.2
    endloop
  endfacet
  facet normal 0 1 0
    outer loop
      vertex 0 17 1.2
      vertex 50 17 0
      vertex 0 17 0
    endloop
  endfacet
  facet normal 0 0 1
    outer loop
      vertex 50 17 1.2
      vertex 40.5 12 1.2
      vertex 50 7.1 1.2
    endloop
  endfacet
  facet normal 0 0 1
    outer loop
      vertex 50 17 1.2
      vertex 40.1545 12.4755 1.2
      vertex 40.5 12 1.2
    endloop
  endfacet
  facet normal 0 0 1
    outer loop
      vertex 50 17 1.2
      vertex 39.5955 12.2939 1.2
      vertex 40.1545 12.4755 1.2
    endloop
  endfacet
  facet normal 0 0 1
    outer loop
      vertex 39.5955 12.2939 1.2
      vertex 10.5 12 1.2
      vertex 39.5955 11.7061 1.2
    endloop
  endfacet
  facet normal -0 0 1
    outer loop
      vertex 10.1545 12.4755 1.2
      vertex 39.5955 12.2939 1.2
      vertex 50 17 1.2
    endloop
  endfacet
  facet normal 0 0 1
    outer loop
      vertex 39.5955 12.2939 1.2
      vertex 10.1545 12.4755 1.2
      vertex 10.5 12 1.2
    endloop
  endfacet
  facet normal 0 0 1
    outer loop
      vertex 9.59549 12.2939 1.2
      vertex 0 17 1.2
      vertex 9.59549 11.7061 1.2
    endloop
  endfacet
  facet normal 0 0 1
    outer loop
      vertex 10.1545 12.4755 1.2
      vertex 0 17 1.2
      vertex 9.59549 12.2939 1.2
    endloop
  endfacet
  facet normal -0 0 1
    outer loop
      vertex 0 17 1.2
      vertex 10.1545 12.4755 1.2
      vertex 50 17 1.2
    endloop
  endfacet
  facet normal -0 0 1
    outer loop
      vertex 40.1545 11.5245 1.2
      vertex 50 7.1 1.2
      vertex 40.5 12 1.2
    endloop
  endfacet
  facet normal 0 0 1
    outer loop
      vertex 39.5955 11.7061 1.2
      vertex 50 7.1 1.2
      vertex 40.1545 11.5245 1.2
    endloop
  endfacet
  facet normal 0 0 1
    outer loop
      vertex 10.1545 11.5245 1.2
      vertex 39.5955 11.7061 1.2
      vertex 10.5 12 1.2
    endloop
  endfacet
  facet normal 0 0 1
    outer loop
      vertex 39.5955 11.7061 1.2
      vertex 10.1545 11.5245 1.2
      vertex 50 7.1 1.2
    endloop
  endfacet
  facet normal 0 0 1
    outer loop
      vertex 10.1545 11.5245 1.2
      vertex 0 7.1 1.2
      vertex 50 7.1 1.2
    endloop
  endfacet
  facet normal 0 0 1
    outer loop
      vertex 9.59549 11.7061 1.2
      vertex 0 7.1 1.2
      vertex 10.1545 11.5245 1.2
    endloop
  endfacet
  facet normal 0 0 1
    outer loop
      vertex 0 7.1 1.2
      vertex 9.59549 11.7061 1.2
      vertex 0 17 1.2
    endloop
  endfacet
  facet normal -1.13906e-07 -0.702001 0.712175
    outer loop
      vertex 46.6667 2.94628 3.00419
      vertex 50 0.446278 0.539903
      vertex 50 7 7
    endloop
  endfacet
  facet normal -9.07894e-07 -0.702002 0.712175
    outer loop
      vertex 49.5115 0.10145 0.2
      vertex 50 0.446278 0.539903
      vertex 46.6667 2.94628 3.00419
    endloop
  endfacet
  facet normal 0 -0.702003 0.712174
    outer loop
      vertex 50 0.446278 0.539903
      vertex 49.5115 0.10145 0.2
      vertex 49.6552 0.10145 0.2
    endloop
  endfacet
  facet normal 0 -0.702002 0.712175
    outer loop
      vertex 40.8333 2.94628 3.00419
      vertex 46.6667 2.94628 3.00419
      vertex 50 7 7
    endloop
  endfacet
  facet normal 0 -0.702002 0.712175
    outer loop
      vertex 46.6667 2.94628 3.00419
      vertex 40.8333 2.94628 3.00419
      vertex 43.8218 0.10145 0.2
    endloop
  endfacet
  facet normal 0 -0.702002 0.712175
    outer loop
      vertex 43.8218 0.10145 0.2
      vertex 40.8333 2.94628 3.00419
      vertex 43.6782 0.10145 0.2
    endloop
  endfacet
  facet normal 0 -0.702002 0.712175
    outer loop
      vertex 40.8333 2.94628 3.00419
      vertex 37.8448 0.10145 0.2
      vertex 37.9885 0.10145 0.2
    endloop
  endfacet
  facet normal 0 -0.702002 0.712175
    outer loop
      vertex 40.8333 2.94628 3.00419
      vertex 35 2.94628 3.00419
      vertex 37.8448 0.10145 0.2
    endloop
  endfacet
  facet normal 0 -0.702002 0.712175
    outer loop
      vertex 50 7 7
      vertex 35 2.94628 3.00419
      vertex 40.8333 2.94628 3.00419
    endloop
  endfacet
  facet normal 0 -0.702002 0.712175
    outer loop
      vertex 35 2.94628 3.00419
      vertex 32.0115 0.10145 0.2
      vertex 32.1552 0.10145 0.2
    endloop
  endfacet
  facet normal 0 -0.702002 0.712175
    outer loop
      vertex 35 2.94628 3.00419
      vertex 29.1667 2.94628 3.00419
      vertex 32.0115 0.10145 0.2
    endloop
  endfacet
  facet normal 0 -0.702002 0.712175
    outer loop
      vertex 50 7 7
      vertex 29.1667 2.94628 3.00419
      vertex 35 2.94628 3.00419
    endloop
  endfacet
  facet normal 0 -0.702002 0.712175
    outer loop
      vertex 29.1667 2.94628 3.00419
      vertex 26.1782 0.10145 0.2
      vertex 26.3218 0.10145 0.2
    endloop
  endfacet
  facet normal 0 -0.702002 0.712175
    outer loop
      vertex 29.1667 2.94628 3.00419
      vertex 23.3333 2.94628 3.00419
      vertex 26.1782 0.10145 0.2
    endloop
  endfacet
  facet normal 0 -0.702002 0.712175
    outer loop
      vertex 50 7 7
      vertex 23.3333 2.94628 3.00419
      vertex 29.1667 2.94628 3.00419
    endloop
  endfacet
  facet normal 0 -0.702002 0.712175
    outer loop
      vertex 23.3333 2.94628 3.00419
      vertex 20.3448 0.10145 0.2
      vertex 20.4885 0.10145 0.2
    endloop
  endfacet
  facet normal 0 -0.702002 0.712175
    outer loop
      vertex 23.3333 2.94628 3.00419
      vertex 17.5 2.94628 3.00419
      vertex 20.3448 0.10145 0.2
    endloop
  endfacet
  facet normal 0 -0.702002 0.712175
    outer loop
      vertex 0 7 7
      vertex 23.3333 2.94628 3.00419
      vertex 50 7 7
    endloop
  endfacet
  facet normal 0 -0.702002 0.712175
    outer loop
      vertex 17.5 2.94628 3.00419
      vertex 14.5115 0.10145 0.2
      vertex 14.6552 0.10145 0.2
    endloop
  endfacet
  facet normal 0 -0.702002 0.712175
    outer loop
      vertex 17.5 2.94628 3.00419
      vertex 11.6667 2.94628 3.00419
      vertex 14.5115 0.10145 0.2
    endloop
  endfacet
  facet normal 0 -0.702002 0.712175
    outer loop
      vertex 23.3333 2.94628 3.00419
      vertex 0 7 7
      vertex 17.5 2.94628 3.00419
    endloop
  endfacet
  facet normal 0 -0.702002 0.712175
    outer loop
      vertex 11.6667 2.94628 3.00419
      vertex 8.67816 0.10145 0.2
      vertex 8.82184 0.10145 0.2
    endloop
  endfacet
  facet normal 0 -0.702002 0.712175
    outer loop
      vertex 11.6667 2.94628 3.00419
      vertex 5.83333 2.94628 3.00419
      vertex 8.67816 0.10145 0.2
    endloop
  endfacet
  facet normal 0 -0.702002 0.712175
    outer loop
      vertex 17.5 2.94628 3.00419
      vertex 0 7 7
      vertex 11.6667 2.94628 3.00419
    endloop
  endfacet
  facet normal 0 -0.702002 0.712175
    outer loop
      vertex 5.83333 2.94628 3.00419
      vertex 2.84483 0.10145 0.2
      vertex 2.9885 0.10145 0.2
    endloop
  endfacet
  facet normal 0 -0.702002 0.712175
    outer loop
      vertex 11.6667 2.94628 3.00419
      vertex 0 7 7
      vertex 5.83333 2.94628 3.00419
    endloop
  endfacet
  facet normal 0 -0.702002 0.712175
    outer loop
      vertex 0 2.94628 3.00419
      vertex 5.83333 2.94628 3.00419
      vertex 0 7 7
    endloop
  endfacet
  facet normal 0 -0.702002 0.712175
    outer loop
      vertex 5.83333 2.94628 3.00419
      vertex 0 2.94628 3.00419
      vertex 2.84483 0.10145 0.2
    endloop
  endfacet
  facet normal -0 0 1
    outer loop
      vertex 0 7.1 7
      vertex 50 7 7
      vertex 50 7.1 7
    endloop
  endfacet
  facet normal 0 0 1
    outer loop
      vertex 50 7 7
      vertex 0 7.1 7
      vertex 0 7 7
    endloop
  endfacet
  facet normal 0 1 -0
    outer loop
      vertex 50 7.1 1.2
      vertex 0 7.1 7
      vertex 50 7.1 7
    endloop
  endfacet
  facet normal 0 1 0
    outer loop
      vertex 0 7.1 7
      vertex 50 7.1 1.2
      vertex 0 7.1 1.2
    endloop
  endfacet
  facet normal 0.308966 0.951073 -0
    outer loop
      vertex 10.1545 11.5245 0
      vertex 9.59549 11.7061 1.2
      vertex 10.1545 11.5245 1.2
    endloop
  endfacet
  facet normal 0.308966 0.951073 0
    outer loop
      vertex 9.59549 11.7061 1.2
      vertex 10.1545 11.5245 0
      vertex 9.59549 11.7061 0
    endloop
  endfacet
  facet normal 0.308966 -0.951073 0
    outer loop
      vertex 9.59549 12.2939 0
      vertex 10.1545 12.4755 1.2
      vertex 9.59549 12.2939 1.2
    endloop
  endfacet
  facet normal 0.308966 -0.951073 0
    outer loop
      vertex 10.1545 12.4755 1.2
      vertex 9.59549 12.2939 0
      vertex 10.1545 12.4755 0
    endloop
  endfacet
  facet normal -0.808994 -0.587818 0
    outer loop
      vertex 10.5 12 0
      vertex 10.1545 12.4755 1.2
      vertex 10.1545 12.4755 0
    endloop
  endfacet
  facet normal -0.808994 -0.587818 0
    outer loop
      vertex 10.1545 12.4755 1.2
      vertex 10.5 12 0
      vertex 10.5 12 1.2
    endloop
  endfacet
  facet normal 1 -0 0
    outer loop
      vertex 9.59549 11.7061 1.2
      vertex 9.59549 12.2939 0
      vertex 9.59549 12.2939 1.2
    endloop
  endfacet
  facet normal 1 0 0
    outer loop
      vertex 9.59549 12.2939 0
      vertex 9.59549 11.7061 1.2
      vertex 9.59549 11.7061 0
    endloop
  endfacet
  facet normal -0.808994 0.587818 0
    outer loop
      vertex 10.1545 11.5245 0
      vertex 10.5 12 1.2
      vertex 10.5 12 0
    endloop
  endfacet
  facet normal -0.808994 0.587818 0
    outer loop
      vertex 10.5 12 1.2
      vertex 10.1545 11.5245 0
      vertex 10.1545 11.5245 1.2
    endloop
  endfacet
  facet normal 0.308971 0.951072 -0
    outer loop
      vertex 40.1545 11.5245 0
      vertex 39.5955 11.7061 1.2
      vertex 40.1545 11.5245 1.2
    endloop
  endfacet
  facet normal 0.308971 0.951072 0
    outer loop
      vertex 39.5955 11.7061 1.2
      vertex 40.1545 11.5245 0
      vertex 39.5955 11.7061 0
    endloop
  endfacet
  facet normal 0.308971 -0.951072 0
    outer loop
      vertex 39.5955 12.2939 0
      vertex 40.1545 12.4755 1.2
      vertex 39.5955 12.2939 1.2
    endloop
  endfacet
  facet normal 0.308971 -0.951072 0
    outer loop
      vertex 40.1545 12.4755 1.2
      vertex 39.5955 12.2939 0
      vertex 40.1545 12.4755 0
    endloop
  endfacet
  facet normal -0.808994 -0.587818 0
    outer loop
      vertex 40.5 12 0
      vertex 40.1545 12.4755 1.2
      vertex 40.1545 12.4755 0
    endloop
  endfacet
  facet normal -0.808994 -0.587818 0
    outer loop
      vertex 40.1545 12.4755 1.2
      vertex 40.5 12 0
      vertex 40.5 12 1.2
    endloop
  endfacet
  facet normal 1 -0 0
    outer loop
      vertex 39.5955 11.7061 1.2
      vertex 39.5955 12.2939 0
      vertex 39.5955 12.2939 1.2
    endloop
  endfacet
  facet normal 1 0 0
    outer loop
      vertex 39.5955 12.2939 0
      vertex 39.5955 11.7061 1.2
      vertex 39.5955 11.7061 0
    endloop
  endfacet
  facet normal -0.808994 0.587818 0
    outer loop
      vertex 40.1545 11.5245 0
      vertex 40.5 12 1.2
      vertex 40.5 12 0
    endloop
  endfacet
  facet normal -0.808994 0.587818 0
    outer loop
      vertex 40.5 12 1.2
      vertex 40.1545 11.5245 0
      vertex 40.1545 11.5245 1.2
    endloop
  endfacet
endsolid OpenSCAD_Model
