solid OpenSCAD_Model
  facet normal 0.5 -0.866026 0
    outer loop
      vertex 3.30727 -7.6671 1
      vertex 4.98627 -6.69773 10
      vertex 3.30727 -7.6671 10
    endloop
  endfacet
  facet normal 0.5 -0.866026 0
    outer loop
      vertex 4.98627 -6.69773 10
      vertex 3.30727 -7.6671 1
      vertex 4.98627 -6.69773 1
    endloop
  endfacet
  facet normal 0.835489 0.549507 0
    outer loop
      vertex 7.19 4.16077 10
      vertex 6.39647 5.36728 1
      vertex 6.39647 5.36728 10
    endloop
  endfacet
  facet normal 0.835489 0.549507 0
    outer loop
      vertex 6.39647 5.36728 1
      vertex 7.19 4.16077 10
      vertex 7.19 4.16077 1
    endloop
  endfacet
  facet normal -0.893632 -0.448799 0
    outer loop
      vertex -6.97632 -4.5884 1
      vertex -7.84643 -2.85587 10
      vertex -7.84643 -2.85587 1
    endloop
  endfacet
  facet normal -0.893632 -0.448799 0
    outer loop
      vertex -7.84643 -2.85587 10
      vertex -6.97632 -4.5884 1
      vertex -6.97632 -4.5884 10
    endloop
  endfacet
  facet normal 0.68624 0.727375 -0
    outer loop
      vertex 6.39647 5.36728 1
      vertex 4.98627 6.69773 10
      vertex 6.39647 5.36728 10
    endloop
  endfacet
  facet normal 0.68624 0.727375 0
    outer loop
      vertex 4.98627 6.69773 10
      vertex 6.39647 5.36728 1
      vertex 4.98627 6.69773 1
    endloop
  endfacet
  facet normal 0.0581457 0.998308 -0
    outer loop
      vertex 1.44996 8.22314 1
      vertex -0.485509 8.33587 10
      vertex 1.44996 8.22314 10
    endloop
  endfacet
  facet normal 0.0581457 0.998308 0
    outer loop
      vertex -0.485509 8.33587 10
      vertex 1.44996 8.22314 1
      vertex -0.485509 8.33587 1
    endloop
  endfacet
  facet normal 0 0 1
    outer loop
      vertex 4.98627 6.69773 10
      vertex 7.19 4.16077 10
      vertex 6.39647 5.36728 10
    endloop
  endfacet
  facet normal 0 0 1
    outer loop
      vertex 3.30727 7.6671 10
      vertex 7.19 4.16077 10
      vertex 4.98627 6.69773 10
    endloop
  endfacet
  facet normal 0 0 1
    outer loop
      vertex 7.19 4.16077 10
      vertex 3.30727 7.6671 10
      vertex 7.19 -4.16077 10
    endloop
  endfacet
  facet normal 0 0 1
    outer loop
      vertex 7.19 -4.16077 10
      vertex 4.98627 -6.69773 10
      vertex 6.39647 -5.36728 10
    endloop
  endfacet
  facet normal 0 0 1
    outer loop
      vertex 1.44996 8.22314 10
      vertex 7.19 -4.16077 10
      vertex 3.30727 7.6671 10
    endloop
  endfacet
  facet normal 0 0 1
    outer loop
      vertex 7.19 -4.16077 10
      vertex 3.30727 -7.6671 10
      vertex 4.98627 -6.69773 10
    endloop
  endfacet
  facet normal 0 0 1
    outer loop
      vertex 7.19 -4.16077 10
      vertex 1.44996 8.22314 10
      vertex 3.30727 -7.6671 10
    endloop
  endfacet
  facet normal 0 0 1
    outer loop
      vertex 1.44996 8.22314 10
      vertex 1.44996 -8.22314 10
      vertex 3.30727 -7.6671 10
    endloop
  endfacet
  facet normal 0 0 1
    outer loop
      vertex -0.485509 8.33587 10
      vertex 1.44996 -8.22314 10
      vertex 1.44996 8.22314 10
    endloop
  endfacet
  facet normal 0 0 1
    outer loop
      vertex -0.485509 8.33587 10
      vertex -0.485509 -8.33587 10
      vertex 1.44996 -8.22314 10
    endloop
  endfacet
  facet normal -0 0 1
    outer loop
      vertex -2.39481 7.99921 10
      vertex -0.485509 -8.33587 10
      vertex -0.485509 8.33587 10
    endloop
  endfacet
  facet normal 0 0 1
    outer loop
      vertex -2.39481 7.99921 10
      vertex -2.39481 -7.99921 10
      vertex -0.485509 -8.33587 10
    endloop
  endfacet
  facet normal -0 0 1
    outer loop
      vertex -4.175 7.23131 10
      vertex -2.39481 -7.99921 10
      vertex -2.39481 7.99921 10
    endloop
  endfacet
  facet normal 0 0 1
    outer loop
      vertex -4.175 7.23131 10
      vertex -4.175 -7.23131 10
      vertex -2.39481 -7.99921 10
    endloop
  endfacet
  facet normal -0 0 1
    outer loop
      vertex -5.73012 6.07357 10
      vertex -4.175 -7.23131 10
      vertex -4.175 7.23131 10
    endloop
  endfacet
  facet normal 0 0 1
    outer loop
      vertex -5.73012 6.07357 10
      vertex -5.73012 -6.07357 10
      vertex -4.175 -7.23131 10
    endloop
  endfacet
  facet normal -0 0 1
    outer loop
      vertex -6.97632 4.5884 10
      vertex -5.73012 -6.07357 10
      vertex -5.73012 6.07357 10
    endloop
  endfacet
  facet normal 0 0 1
    outer loop
      vertex -6.97632 4.5884 10
      vertex -6.97632 -4.5884 10
      vertex -5.73012 -6.07357 10
    endloop
  endfacet
  facet normal -0 0 1
    outer loop
      vertex -7.84643 2.85587 10
      vertex -6.97632 -4.5884 10
      vertex -6.97632 4.5884 10
    endloop
  endfacet
  facet normal 0 0 1
    outer loop
      vertex -7.84643 2.85587 10
      vertex -7.84643 -2.85587 10
      vertex -6.97632 -4.5884 10
    endloop
  endfacet
  facet normal -0 0 1
    outer loop
      vertex -8.29354 0.969376 10
      vertex -7.84643 -2.85587 10
      vertex -7.84643 2.85587 10
    endloop
  endfacet
  facet normal 0 0 1
    outer loop
      vertex -7.84643 -2.85587 10
      vertex -8.29354 0.969376 10
      vertex -8.29354 -0.969376 10
    endloop
  endfacet
  facet normal -0.766046 -0.642786 0
    outer loop
      vertex -5.73012 -6.07357 1
      vertex -6.97632 -4.5884 10
      vertex -6.97632 -4.5884 1
    endloop
  endfacet
  facet normal -0.766046 -0.642786 0
    outer loop
      vertex -6.97632 -4.5884 10
      vertex -5.73012 -6.07357 1
      vertex -5.73012 -6.07357 10
    endloop
  endfacet
  facet normal -0.597157 0.802124 0
    outer loop
      vertex -4.175 7.23131 1
      vertex -5.73012 6.07357 10
      vertex -4.175 7.23131 10
    endloop
  endfacet
  facet normal -0.597157 0.802124 0
    outer loop
      vertex -5.73012 6.07357 10
      vertex -4.175 7.23131 1
      vertex -5.73012 6.07357 1
    endloop
  endfacet
  facet normal 0.286802 0.95799 -0
    outer loop
      vertex 3.30727 7.6671 1
      vertex 1.44996 8.22314 10
      vertex 3.30727 7.6671 10
    endloop
  endfacet
  facet normal 0.286802 0.95799 0
    outer loop
      vertex 1.44996 8.22314 10
      vertex 3.30727 7.6671 1
      vertex 1.44996 8.22314 1
    endloop
  endfacet
  facet normal 0.68624 -0.727375 0
    outer loop
      vertex 4.98627 -6.69773 1
      vertex 6.39647 -5.36728 10
      vertex 4.98627 -6.69773 10
    endloop
  endfacet
  facet normal 0.68624 -0.727375 0
    outer loop
      vertex 6.39647 -5.36728 10
      vertex 4.98627 -6.69773 1
      vertex 6.39647 -5.36728 1
    endloop
  endfacet
  facet normal -0.973045 -0.230617 0
    outer loop
      vertex -7.84643 -2.85587 1
      vertex -8.29354 -0.969376 10
      vertex -8.29354 -0.969376 1
    endloop
  endfacet
  facet normal -0.973045 -0.230617 0
    outer loop
      vertex -8.29354 -0.969376 10
      vertex -7.84643 -2.85587 1
      vertex -7.84643 -2.85587 10
    endloop
  endfacet
  facet normal -0.39608 -0.918216 0
    outer loop
      vertex -4.175 -7.23131 1
      vertex -2.39481 -7.99921 10
      vertex -4.175 -7.23131 10
    endloop
  endfacet
  facet normal -0.39608 -0.918216 -0
    outer loop
      vertex -2.39481 -7.99921 10
      vertex -4.175 -7.23131 1
      vertex -2.39481 -7.99921 1
    endloop
  endfacet
  facet normal -0.39608 0.918216 0
    outer loop
      vertex -2.39481 7.99921 1
      vertex -4.175 7.23131 10
      vertex -2.39481 7.99921 10
    endloop
  endfacet
  facet normal -0.39608 0.918216 0
    outer loop
      vertex -4.175 7.23131 10
      vertex -2.39481 7.99921 1
      vertex -4.175 7.23131 1
    endloop
  endfacet
  facet normal -0.893632 0.448799 0
    outer loop
      vertex -7.84643 2.85587 1
      vertex -6.97632 4.5884 10
      vertex -6.97632 4.5884 1
    endloop
  endfacet
  facet normal -0.893632 0.448799 0
    outer loop
      vertex -6.97632 4.5884 10
      vertex -7.84643 2.85587 1
      vertex -7.84643 2.85587 10
    endloop
  endfacet
  facet normal 0.835489 -0.549507 0
    outer loop
      vertex 6.39647 -5.36728 10
      vertex 7.19 -4.16077 1
      vertex 7.19 -4.16077 10
    endloop
  endfacet
  facet normal 0.835489 -0.549507 0
    outer loop
      vertex 7.19 -4.16077 1
      vertex 6.39647 -5.36728 10
      vertex 6.39647 -5.36728 1
    endloop
  endfacet
  facet normal -1 0 0
    outer loop
      vertex -8.29354 -0.969376 1
      vertex -8.29354 0.969376 10
      vertex -8.29354 0.969376 1
    endloop
  endfacet
  facet normal -1 -0 0
    outer loop
      vertex -8.29354 0.969376 10
      vertex -8.29354 -0.969376 1
      vertex -8.29354 -0.969376 10
    endloop
  endfacet
  facet normal 0.5 0.866026 -0
    outer loop
      vertex 4.98627 6.69773 1
      vertex 3.30727 7.6671 10
      vertex 4.98627 6.69773 10
    endloop
  endfacet
  facet normal 0.5 0.866026 0
    outer loop
      vertex 3.30727 7.6671 10
      vertex 4.98627 6.69773 1
      vertex 3.30727 7.6671 1
    endloop
  endfacet
  facet normal -0.597157 -0.802124 0
    outer loop
      vertex -5.73012 -6.07357 1
      vertex -4.175 -7.23131 10
      vertex -5.73012 -6.07357 10
    endloop
  endfacet
  facet normal -0.597157 -0.802124 -0
    outer loop
      vertex -4.175 -7.23131 10
      vertex -5.73012 -6.07357 1
      vertex -4.175 -7.23131 1
    endloop
  endfacet
  facet normal 0.0581457 -0.998308 0
    outer loop
      vertex -0.485509 -8.33587 1
      vertex 1.44996 -8.22314 10
      vertex -0.485509 -8.33587 10
    endloop
  endfacet
  facet normal 0.0581457 -0.998308 0
    outer loop
      vertex 1.44996 -8.22314 10
      vertex -0.485509 -8.33587 1
      vertex 1.44996 -8.22314 1
    endloop
  endfacet
  facet normal 0.286802 -0.95799 0
    outer loop
      vertex 1.44996 -8.22314 1
      vertex 3.30727 -7.6671 10
      vertex 1.44996 -8.22314 10
    endloop
  endfacet
  facet normal 0.286802 -0.95799 0
    outer loop
      vertex 3.30727 -7.6671 10
      vertex 1.44996 -8.22314 1
      vertex 3.30727 -7.6671 1
    endloop
  endfacet
  facet normal -0.173648 0.984808 0
    outer loop
      vertex -0.485509 8.33587 1
      vertex -2.39481 7.99921 10
      vertex -0.485509 8.33587 10
    endloop
  endfacet
  facet normal -0.173648 0.984808 0
    outer loop
      vertex -2.39481 7.99921 10
      vertex -0.485509 8.33587 1
      vertex -2.39481 7.99921 1
    endloop
  endfacet
  facet normal -0.766046 0.642786 0
    outer loop
      vertex -6.97632 4.5884 1
      vertex -5.73012 6.07357 10
      vertex -5.73012 6.07357 1
    endloop
  endfacet
  facet normal -0.766046 0.642786 0
    outer loop
      vertex -5.73012 6.07357 10
      vertex -6.97632 4.5884 1
      vertex -6.97632 4.5884 10
    endloop
  endfacet
  facet normal -0.173648 -0.984808 0
    outer loop
      vertex -2.39481 -7.99921 1
      vertex -0.485509 -8.33587 10
      vertex -2.39481 -7.99921 10
    endloop
  endfacet
  facet normal -0.173648 -0.984808 -0
    outer loop
      vertex -0.485509 -8.33587 10
      vertex -2.39481 -7.99921 1
      vertex -0.485509 -8.33587 1
    endloop
  endfacet
  facet normal 0 0 -1
    outer loop
      vertex 7.96882 -5.78968 0
      vertex 7.19 -5 0
      vertex 8.42474 -5 0
    endloop
  endfacet
  facet normal 0 0 -1
    outer loop
      vertex 4.925 -8.53035 0
      vertex 7.19 -5 0
      vertex 6.59094 -7.31998 0
    endloop
  endfacet
  facet normal 0 0 -1
    outer loop
      vertex 6.59094 -7.31998 0
      vertex 7.19 -5 0
      vertex 7.96882 -5.78968 0
    endloop
  endfacet
  facet normal 0 0 -1
    outer loop
      vertex 7.19 5 0
      vertex 7.96882 5.78968 0
      vertex 8.42474 5 0
    endloop
  endfacet
  facet normal 0 0 -1
    outer loop
      vertex 7.19 5 0
      vertex 6.59094 7.31998 0
      vertex 7.96882 5.78968 0
    endloop
  endfacet
  facet normal 0 0 -1
    outer loop
      vertex 3.04382 -9.36791 0
      vertex 7.19 -5 0
      vertex 4.925 -8.53035 0
    endloop
  endfacet
  facet normal 0 0 -1
    outer loop
      vertex 1.0296 -9.79604 0
      vertex 7.19 -5 0
      vertex 3.04382 -9.36791 0
    endloop
  endfacet
  facet normal 0 0 -1
    outer loop
      vertex 7.19 5 0
      vertex 4.925 8.53035 0
      vertex 6.59094 7.31998 0
    endloop
  endfacet
  facet normal 0 0 -1
    outer loop
      vertex -1.0296 -9.79604 0
      vertex 7.19 -5 0
      vertex 1.0296 -9.79604 0
    endloop
  endfacet
  facet normal 0 0 -1
    outer loop
      vertex 7.19 5 0
      vertex 3.04382 9.36791 0
      vertex 4.925 8.53035 0
    endloop
  endfacet
  facet normal 0 0 -1
    outer loop
      vertex -3.04382 -9.36791 0
      vertex 7.19 -5 0
      vertex -1.0296 -9.79604 0
    endloop
  endfacet
  facet normal 0 0 -1
    outer loop
      vertex 7.19 5 0
      vertex 1.0296 9.79604 0
      vertex 3.04382 9.36791 0
    endloop
  endfacet
  facet normal 0 0 -1
    outer loop
      vertex -4.925 -8.53035 0
      vertex 7.19 -5 0
      vertex -3.04382 -9.36791 0
    endloop
  endfacet
  facet normal 0 0 -1
    outer loop
      vertex 7.19 5 0
      vertex -1.0296 9.79604 0
      vertex 1.0296 9.79604 0
    endloop
  endfacet
  facet normal 0 0 -1
    outer loop
      vertex -6.59094 -7.31998 0
      vertex 7.19 -5 0
      vertex -4.925 -8.53035 0
    endloop
  endfacet
  facet normal 0 0 -1
    outer loop
      vertex 7.19 5 0
      vertex -3.04382 9.36791 0
      vertex -1.0296 9.79604 0
    endloop
  endfacet
  facet normal 0 0 -1
    outer loop
      vertex -7.96882 -5.78968 0
      vertex 7.19 -5 0
      vertex -6.59094 -7.31998 0
    endloop
  endfacet
  facet normal 0 0 -1
    outer loop
      vertex 7.19 5 0
      vertex -4.925 8.53035 0
      vertex -3.04382 9.36791 0
    endloop
  endfacet
  facet normal 0 0 -1
    outer loop
      vertex -8.99842 -4.00636 0
      vertex 7.19 -5 0
      vertex -7.96882 -5.78968 0
    endloop
  endfacet
  facet normal 0 0 -1
    outer loop
      vertex 7.19 5 0
      vertex -6.59094 7.31998 0
      vertex -4.925 8.53035 0
    endloop
  endfacet
  facet normal 0 0 -1
    outer loop
      vertex -9.63475 -2.04793 0
      vertex 7.19 -5 0
      vertex -8.99842 -4.00636 0
    endloop
  endfacet
  facet normal 0 0 -1
    outer loop
      vertex 7.19 5 0
      vertex -7.96882 5.78968 0
      vertex -6.59094 7.31998 0
    endloop
  endfacet
  facet normal 0 0 -1
    outer loop
      vertex 7.19 -5 0
      vertex -9.63475 -2.04793 0
      vertex 7.19 5 0
    endloop
  endfacet
  facet normal -0 0 -1
    outer loop
      vertex 7.19 5 0
      vertex -8.99842 4.00636 0
      vertex -7.96882 5.78968 0
    endloop
  endfacet
  facet normal 0 0 -1
    outer loop
      vertex -9.85 0 0
      vertex 7.19 5 0
      vertex -9.63475 -2.04793 0
    endloop
  endfacet
  facet normal 0 0 -1
    outer loop
      vertex 7.19 5 0
      vertex -9.63475 2.04793 0
      vertex -8.99842 4.00636 0
    endloop
  endfacet
  facet normal 0 0 -1
    outer loop
      vertex 7.19 5 0
      vertex -9.85 0 0
      vertex -9.63475 2.04793 0
    endloop
  endfacet
  facet normal -0.973045 0.230617 0
    outer loop
      vertex -8.29354 0.969376 1
      vertex -7.84643 2.85587 10
      vertex -7.84643 2.85587 1
    endloop
  endfacet
  facet normal -0.973045 0.230617 0
    outer loop
      vertex -7.84643 2.85587 10
      vertex -8.29354 0.969376 1
      vertex -8.29354 0.969376 10
    endloop
  endfacet
  facet normal 0.406739 0.913545 -0
    outer loop
      vertex 4.925 8.53035 0
      vertex 3.04382 9.36791 1
      vertex 4.925 8.53035 1
    endloop
  endfacet
  facet normal 0.406739 0.913545 0
    outer loop
      vertex 3.04382 9.36791 1
      vertex 4.925 8.53035 0
      vertex 3.04382 9.36791 0
    endloop
  endfacet
  facet normal 0.866026 0.499998 0
    outer loop
      vertex 8.42474 5 1
      vertex 7.96882 5.78968 0
      vertex 7.96882 5.78968 1
    endloop
  endfacet
  facet normal 0.866026 0.499998 0
    outer loop
      vertex 7.96882 5.78968 0
      vertex 8.42474 5 1
      vertex 8.42474 5 0
    endloop
  endfacet
  facet normal 0 -1 0
    outer loop
      vertex -1.0296 -9.79604 0
      vertex 1.0296 -9.79604 1
      vertex -1.0296 -9.79604 1
    endloop
  endfacet
  facet normal 0 -1 -0
    outer loop
      vertex 1.0296 -9.79604 1
      vertex -1.0296 -9.79604 0
      vertex 1.0296 -9.79604 0
    endloop
  endfacet
  facet normal 0.207909 -0.978148 0
    outer loop
      vertex 1.0296 -9.79604 0
      vertex 3.04382 -9.36791 1
      vertex 1.0296 -9.79604 1
    endloop
  endfacet
  facet normal 0.207909 -0.978148 0
    outer loop
      vertex 3.04382 -9.36791 1
      vertex 1.0296 -9.79604 0
      vertex 3.04382 -9.36791 0
    endloop
  endfacet
  facet normal 0.743147 0.669128 0
    outer loop
      vertex 7.96882 5.78968 1
      vertex 6.59094 7.31998 0
      vertex 6.59094 7.31998 1
    endloop
  endfacet
  facet normal 0.743147 0.669128 0
    outer loop
      vertex 6.59094 7.31998 0
      vertex 7.96882 5.78968 1
      vertex 7.96882 5.78968 0
    endloop
  endfacet
  facet normal 0.743147 -0.669128 0
    outer loop
      vertex 6.59094 -7.31998 1
      vertex 7.96882 -5.78968 0
      vertex 7.96882 -5.78968 1
    endloop
  endfacet
  facet normal 0.743147 -0.669128 0
    outer loop
      vertex 7.96882 -5.78968 0
      vertex 6.59094 -7.31998 1
      vertex 6.59094 -7.31998 0
    endloop
  endfacet
  facet normal -0.951057 -0.309016 0
    outer loop
      vertex -8.99842 -4.00636 0
      vertex -9.63475 -2.04793 1
      vertex -9.63475 -2.04793 0
    endloop
  endfacet
  facet normal -0.951057 -0.309016 0
    outer loop
      vertex -9.63475 -2.04793 1
      vertex -8.99842 -4.00636 0
      vertex -8.99842 -4.00636 1
    endloop
  endfacet
  facet normal 0.866026 -0.499998 0
    outer loop
      vertex 7.96882 -5.78968 1
      vertex 8.42474 -5 0
      vertex 8.42474 -5 1
    endloop
  endfacet
  facet normal 0.866026 -0.499998 0
    outer loop
      vertex 8.42474 -5 0
      vertex 7.96882 -5.78968 1
      vertex 7.96882 -5.78968 0
    endloop
  endfacet
  facet normal -0.406739 0.913545 0
    outer loop
      vertex -3.04382 9.36791 0
      vertex -4.925 8.53035 1
      vertex -3.04382 9.36791 1
    endloop
  endfacet
  facet normal -0.406739 0.913545 0
    outer loop
      vertex -4.925 8.53035 1
      vertex -3.04382 9.36791 0
      vertex -4.925 8.53035 0
    endloop
  endfacet
  facet normal -0.587783 0.809018 0
    outer loop
      vertex -4.925 8.53035 0
      vertex -6.59094 7.31998 1
      vertex -4.925 8.53035 1
    endloop
  endfacet
  facet normal -0.587783 0.809018 0
    outer loop
      vertex -6.59094 7.31998 1
      vertex -4.925 8.53035 0
      vertex -6.59094 7.31998 0
    endloop
  endfacet
  facet normal -0.743147 0.669128 0
    outer loop
      vertex -7.96882 5.78968 0
      vertex -6.59094 7.31998 1
      vertex -6.59094 7.31998 0
    endloop
  endfacet
  facet normal -0.743147 0.669128 0
    outer loop
      vertex -6.59094 7.31998 1
      vertex -7.96882 5.78968 0
      vertex -7.96882 5.78968 1
    endloop
  endfacet
  facet normal -0.866025 0.5 0
    outer loop
      vertex -8.99842 4.00636 0
      vertex -7.96882 5.78968 1
      vertex -7.96882 5.78968 0
    endloop
  endfacet
  facet normal -0.866025 0.5 0
    outer loop
      vertex -7.96882 5.78968 1
      vertex -8.99842 4.00636 0
      vertex -8.99842 4.00636 1
    endloop
  endfacet
  facet normal 0.587783 -0.809018 0
    outer loop
      vertex 4.925 -8.53035 0
      vertex 6.59094 -7.31998 1
      vertex 4.925 -8.53035 1
    endloop
  endfacet
  facet normal 0.587783 -0.809018 0
    outer loop
      vertex 6.59094 -7.31998 1
      vertex 4.925 -8.53035 0
      vertex 6.59094 -7.31998 0
    endloop
  endfacet
  facet normal 0.207909 0.978148 -0
    outer loop
      vertex 3.04382 9.36791 0
      vertex 1.0296 9.79604 1
      vertex 3.04382 9.36791 1
    endloop
  endfacet
  facet normal 0.207909 0.978148 0
    outer loop
      vertex 1.0296 9.79604 1
      vertex 3.04382 9.36791 0
      vertex 1.0296 9.79604 0
    endloop
  endfacet
  facet normal -0.994522 -0.10453 0
    outer loop
      vertex -9.63475 -2.04793 0
      vertex -9.85 0 1
      vertex -9.85 0 0
    endloop
  endfacet
  facet normal -0.994522 -0.10453 0
    outer loop
      vertex -9.85 0 1
      vertex -9.63475 -2.04793 0
      vertex -9.63475 -2.04793 1
    endloop
  endfacet
  facet normal -0.866025 -0.5 0
    outer loop
      vertex -7.96882 -5.78968 0
      vertex -8.99842 -4.00636 1
      vertex -8.99842 -4.00636 0
    endloop
  endfacet
  facet normal -0.866025 -0.5 0
    outer loop
      vertex -8.99842 -4.00636 1
      vertex -7.96882 -5.78968 0
      vertex -7.96882 -5.78968 1
    endloop
  endfacet
  facet normal 0 0 1
    outer loop
      vertex 7.96882 5.78968 1
      vertex 7.19 5 1
      vertex 8.42474 5 1
    endloop
  endfacet
  facet normal 0 0 1
    outer loop
      vertex 6.39647 5.36728 1
      vertex 7.96882 5.78968 1
      vertex 6.59094 7.31998 1
    endloop
  endfacet
  facet normal 0 0 1
    outer loop
      vertex 7.96882 5.78968 1
      vertex 6.39647 5.36728 1
      vertex 7.19 5 1
    endloop
  endfacet
  facet normal 0 0 1
    outer loop
      vertex 7.19 5 1
      vertex 6.39647 5.36728 1
      vertex 7.19 4.16077 1
    endloop
  endfacet
  facet normal 0 0 1
    outer loop
      vertex 6.59094 7.31998 1
      vertex 4.98627 6.69773 1
      vertex 6.39647 5.36728 1
    endloop
  endfacet
  facet normal 0 0 1
    outer loop
      vertex 4.925 8.53035 1
      vertex 4.98627 6.69773 1
      vertex 6.59094 7.31998 1
    endloop
  endfacet
  facet normal 0 0 1
    outer loop
      vertex 4.925 8.53035 1
      vertex 3.30727 7.6671 1
      vertex 4.98627 6.69773 1
    endloop
  endfacet
  facet normal 0 0 1
    outer loop
      vertex 3.04382 9.36791 1
      vertex 3.30727 7.6671 1
      vertex 4.925 8.53035 1
    endloop
  endfacet
  facet normal 0 0 1
    outer loop
      vertex 3.04382 9.36791 1
      vertex 1.44996 8.22314 1
      vertex 3.30727 7.6671 1
    endloop
  endfacet
  facet normal 0 0 1
    outer loop
      vertex 1.0296 9.79604 1
      vertex 1.44996 8.22314 1
      vertex 3.04382 9.36791 1
    endloop
  endfacet
  facet normal 0 0 1
    outer loop
      vertex 1.0296 9.79604 1
      vertex -0.485509 8.33587 1
      vertex 1.44996 8.22314 1
    endloop
  endfacet
  facet normal -0 0 1
    outer loop
      vertex -1.0296 9.79604 1
      vertex -0.485509 8.33587 1
      vertex 1.0296 9.79604 1
    endloop
  endfacet
  facet normal 0 0 1
    outer loop
      vertex -1.0296 9.79604 1
      vertex -2.39481 7.99921 1
      vertex -0.485509 8.33587 1
    endloop
  endfacet
  facet normal -0 0 1
    outer loop
      vertex -3.04382 9.36791 1
      vertex -2.39481 7.99921 1
      vertex -1.0296 9.79604 1
    endloop
  endfacet
  facet normal 0 0 1
    outer loop
      vertex -3.04382 9.36791 1
      vertex -4.175 7.23131 1
      vertex -2.39481 7.99921 1
    endloop
  endfacet
  facet normal -0 0 1
    outer loop
      vertex -4.925 8.53035 1
      vertex -4.175 7.23131 1
      vertex -3.04382 9.36791 1
    endloop
  endfacet
  facet normal -0 0 1
    outer loop
      vertex -6.59094 7.31998 1
      vertex -4.175 7.23131 1
      vertex -4.925 8.53035 1
    endloop
  endfacet
  facet normal 0 0 1
    outer loop
      vertex -4.175 7.23131 1
      vertex -6.59094 7.31998 1
      vertex -5.73012 6.07357 1
    endloop
  endfacet
  facet normal 0 0 1
    outer loop
      vertex -7.96882 5.78968 1
      vertex -5.73012 6.07357 1
      vertex -6.59094 7.31998 1
    endloop
  endfacet
  facet normal 0 0 1
    outer loop
      vertex -5.73012 6.07357 1
      vertex -7.96882 5.78968 1
      vertex -6.97632 4.5884 1
    endloop
  endfacet
  facet normal 0 0 1
    outer loop
      vertex -8.99842 4.00636 1
      vertex -6.97632 4.5884 1
      vertex -7.96882 5.78968 1
    endloop
  endfacet
  facet normal 0 0 1
    outer loop
      vertex -6.97632 4.5884 1
      vertex -8.99842 4.00636 1
      vertex -7.84643 2.85587 1
    endloop
  endfacet
  facet normal 0 0 1
    outer loop
      vertex -7.84643 2.85587 1
      vertex -9.63475 2.04793 1
      vertex -8.29354 0.969376 1
    endloop
  endfacet
  facet normal 0 0 1
    outer loop
      vertex -9.63475 2.04793 1
      vertex -7.84643 2.85587 1
      vertex -8.99842 4.00636 1
    endloop
  endfacet
  facet normal 0 0 1
    outer loop
      vertex 6.39647 -5.36728 1
      vertex 7.19 -5 1
      vertex 7.19 -4.16077 1
    endloop
  endfacet
  facet normal 0 0 1
    outer loop
      vertex 7.19 -5 1
      vertex 6.39647 -5.36728 1
      vertex 6.59094 -7.31998 1
    endloop
  endfacet
  facet normal -0 0 1
    outer loop
      vertex 4.98627 -6.69773 1
      vertex 6.59094 -7.31998 1
      vertex 6.39647 -5.36728 1
    endloop
  endfacet
  facet normal 0 0 1
    outer loop
      vertex 4.98627 -6.69773 1
      vertex 4.925 -8.53035 1
      vertex 6.59094 -7.31998 1
    endloop
  endfacet
  facet normal -0 0 1
    outer loop
      vertex 3.30727 -7.6671 1
      vertex 4.925 -8.53035 1
      vertex 4.98627 -6.69773 1
    endloop
  endfacet
  facet normal 0 0 1
    outer loop
      vertex 3.30727 -7.6671 1
      vertex 3.04382 -9.36791 1
      vertex 4.925 -8.53035 1
    endloop
  endfacet
  facet normal -0 0 1
    outer loop
      vertex 1.44996 -8.22314 1
      vertex 3.04382 -9.36791 1
      vertex 3.30727 -7.6671 1
    endloop
  endfacet
  facet normal 0 0 1
    outer loop
      vertex 1.44996 -8.22314 1
      vertex 1.0296 -9.79604 1
      vertex 3.04382 -9.36791 1
    endloop
  endfacet
  facet normal -0 0 1
    outer loop
      vertex -0.485509 -8.33587 1
      vertex 1.0296 -9.79604 1
      vertex 1.44996 -8.22314 1
    endloop
  endfacet
  facet normal 0 0 1
    outer loop
      vertex -0.485509 -8.33587 1
      vertex -1.0296 -9.79604 1
      vertex 1.0296 -9.79604 1
    endloop
  endfacet
  facet normal 0 0 1
    outer loop
      vertex -2.39481 -7.99921 1
      vertex -1.0296 -9.79604 1
      vertex -0.485509 -8.33587 1
    endloop
  endfacet
  facet normal 0 0 1
    outer loop
      vertex -2.39481 -7.99921 1
      vertex -3.04382 -9.36791 1
      vertex -1.0296 -9.79604 1
    endloop
  endfacet
  facet normal 0 0 1
    outer loop
      vertex -4.175 -7.23131 1
      vertex -3.04382 -9.36791 1
      vertex -2.39481 -7.99921 1
    endloop
  endfacet
  facet normal 0 0 1
    outer loop
      vertex -4.175 -7.23131 1
      vertex -4.925 -8.53035 1
      vertex -3.04382 -9.36791 1
    endloop
  endfacet
  facet normal 0 0 1
    outer loop
      vertex -6.59094 -7.31998 1
      vertex -4.175 -7.23131 1
      vertex -5.73012 -6.07357 1
    endloop
  endfacet
  facet normal 0 0 1
    outer loop
      vertex -4.175 -7.23131 1
      vertex -6.59094 -7.31998 1
      vertex -4.925 -8.53035 1
    endloop
  endfacet
  facet normal -0 0 1
    outer loop
      vertex -7.96882 -5.78968 1
      vertex -5.73012 -6.07357 1
      vertex -6.97632 -4.5884 1
    endloop
  endfacet
  facet normal -0 0 1
    outer loop
      vertex -8.99842 -4.00636 1
      vertex -6.97632 -4.5884 1
      vertex -7.84643 -2.85587 1
    endloop
  endfacet
  facet normal 0 0 1
    outer loop
      vertex -5.73012 -6.07357 1
      vertex -7.96882 -5.78968 1
      vertex -6.59094 -7.31998 1
    endloop
  endfacet
  facet normal -0 0 1
    outer loop
      vertex -9.63475 -2.04793 1
      vertex -7.84643 -2.85587 1
      vertex -8.29354 -0.969376 1
    endloop
  endfacet
  facet normal 0 0 1
    outer loop
      vertex -9.85 0 1
      vertex -8.29354 0.969376 1
      vertex -9.63475 2.04793 1
    endloop
  endfacet
  facet normal 0 0 1
    outer loop
      vertex -6.97632 -4.5884 1
      vertex -8.99842 -4.00636 1
      vertex -7.96882 -5.78968 1
    endloop
  endfacet
  facet normal 0 0 1
    outer loop
      vertex -8.29354 0.969376 1
      vertex -9.85 0 1
      vertex -8.29354 -0.969376 1
    endloop
  endfacet
  facet normal 0 0 1
    outer loop
      vertex -7.84643 -2.85587 1
      vertex -9.63475 -2.04793 1
      vertex -8.99842 -4.00636 1
    endloop
  endfacet
  facet normal 0 0 1
    outer loop
      vertex -8.29354 -0.969376 1
      vertex -9.85 0 1
      vertex -9.63475 -2.04793 1
    endloop
  endfacet
  facet normal -0 0 1
    outer loop
      vertex 7.19 -5 1
      vertex 7.96882 -5.78968 1
      vertex 8.42474 -5 1
    endloop
  endfacet
  facet normal 0 0 1
    outer loop
      vertex 7.96882 -5.78968 1
      vertex 7.19 -5 1
      vertex 6.59094 -7.31998 1
    endloop
  endfacet
  facet normal -0.587783 -0.809018 0
    outer loop
      vertex -6.59094 -7.31998 0
      vertex -4.925 -8.53035 1
      vertex -6.59094 -7.31998 1
    endloop
  endfacet
  facet normal -0.587783 -0.809018 -0
    outer loop
      vertex -4.925 -8.53035 1
      vertex -6.59094 -7.31998 0
      vertex -4.925 -8.53035 0
    endloop
  endfacet
  facet normal 0 1 -0
    outer loop
      vertex 1.0296 9.79604 0
      vertex -1.0296 9.79604 1
      vertex 1.0296 9.79604 1
    endloop
  endfacet
  facet normal 0 1 0
    outer loop
      vertex -1.0296 9.79604 1
      vertex 1.0296 9.79604 0
      vertex -1.0296 9.79604 0
    endloop
  endfacet
  facet normal -0.951057 0.309016 0
    outer loop
      vertex -9.63475 2.04793 0
      vertex -8.99842 4.00636 1
      vertex -8.99842 4.00636 0
    endloop
  endfacet
  facet normal -0.951057 0.309016 0
    outer loop
      vertex -8.99842 4.00636 1
      vertex -9.63475 2.04793 0
      vertex -9.63475 2.04793 1
    endloop
  endfacet
  facet normal 0.406739 -0.913545 0
    outer loop
      vertex 3.04382 -9.36791 0
      vertex 4.925 -8.53035 1
      vertex 3.04382 -9.36791 1
    endloop
  endfacet
  facet normal 0.406739 -0.913545 0
    outer loop
      vertex 4.925 -8.53035 1
      vertex 3.04382 -9.36791 0
      vertex 4.925 -8.53035 0
    endloop
  endfacet
  facet normal 0.587783 0.809018 -0
    outer loop
      vertex 6.59094 7.31998 0
      vertex 4.925 8.53035 1
      vertex 6.59094 7.31998 1
    endloop
  endfacet
  facet normal 0.587783 0.809018 0
    outer loop
      vertex 4.925 8.53035 1
      vertex 6.59094 7.31998 0
      vertex 4.925 8.53035 0
    endloop
  endfacet
  facet normal -0.994522 0.10453 0
    outer loop
      vertex -9.85 0 0
      vertex -9.63475 2.04793 1
      vertex -9.63475 2.04793 0
    endloop
  endfacet
  facet normal -0.994522 0.10453 0
    outer loop
      vertex -9.63475 2.04793 1
      vertex -9.85 0 0
      vertex -9.85 0 1
    endloop
  endfacet
  facet normal -0.207909 0.978148 0
    outer loop
      vertex -1.0296 9.79604 0
      vertex -3.04382 9.36791 1
      vertex -1.0296 9.79604 1
    endloop
  endfacet
  facet normal -0.207909 0.978148 0
    outer loop
      vertex -3.04382 9.36791 1
      vertex -1.0296 9.79604 0
      vertex -3.04382 9.36791 0
    endloop
  endfacet
  facet normal -0.743147 -0.669128 0
    outer loop
      vertex -6.59094 -7.31998 0
      vertex -7.96882 -5.78968 1
      vertex -7.96882 -5.78968 0
    endloop
  endfacet
  facet normal -0.743147 -0.669128 0
    outer loop
      vertex -7.96882 -5.78968 1
      vertex -6.59094 -7.31998 0
      vertex -6.59094 -7.31998 1
    endloop
  endfacet
  facet normal -0.207909 -0.978148 0
    outer loop
      vertex -3.04382 -9.36791 0
      vertex -1.0296 -9.79604 1
      vertex -3.04382 -9.36791 1
    endloop
  endfacet
  facet normal -0.207909 -0.978148 -0
    outer loop
      vertex -1.0296 -9.79604 1
      vertex -3.04382 -9.36791 0
      vertex -1.0296 -9.79604 0
    endloop
  endfacet
  facet normal -0.406739 -0.913545 0
    outer loop
      vertex -4.925 -8.53035 0
      vertex -3.04382 -9.36791 1
      vertex -4.925 -8.53035 1
    endloop
  endfacet
  facet normal -0.406739 -0.913545 -0
    outer loop
      vertex -3.04382 -9.36791 1
      vertex -4.925 -8.53035 0
      vertex -3.04382 -9.36791 0
    endloop
  endfacet
  facet normal 1 0 0
    outer loop
      vertex 7.19 4.16077 10
      vertex 7.19 -4.16077 10
      vertex 7.19 4.16077 1
    endloop
  endfacet
  facet normal 1 -0 0
    outer loop
      vertex 7.19 4.16077 1
      vertex 7.19 5 0
      vertex 7.19 5 1
    endloop
  endfacet
  facet normal 1 0 0
    outer loop
      vertex 7.19 -4.16077 1
      vertex 7.19 4.16077 1
      vertex 7.19 -4.16077 10
    endloop
  endfacet
  facet normal 1 0 0
    outer loop
      vertex 7.19 4.16077 1
      vertex 7.19 -4.16077 1
      vertex 7.19 5 0
    endloop
  endfacet
  facet normal 1 0 0
    outer loop
      vertex 7.19 -5 0
      vertex 7.19 -4.16077 1
      vertex 7.19 -5 1
    endloop
  endfacet
  facet normal 1 0 0
    outer loop
      vertex 7.19 -4.16077 1
      vertex 7.19 -5 0
      vertex 7.19 5 0
    endloop
  endfacet
  facet normal 0 -1 0
    outer loop
      vertex 7.19 5 0
      vertex 8.42474 5 1
      vertex 7.19 5 1
    endloop
  endfacet
  facet normal 0 -1 -0
    outer loop
      vertex 8.42474 5 1
      vertex 7.19 5 0
      vertex 8.42474 5 0
    endloop
  endfacet
  facet normal 0 1 -0
    outer loop
      vertex 8.42474 -5 0
      vertex 7.19 -5 1
      vertex 8.42474 -5 1
    endloop
  endfacet
  facet normal 0 1 0
    outer loop
      vertex 7.19 -5 1
      vertex 8.42474 -5 0
      vertex 7.19 -5 0
    endloop
  endfacet
endsolid OpenSCAD_Model
