solid OpenSCAD_Model
  facet normal 0 -1 0
    outer loop
      vertex -13.0679 -26.4178 1.5
      vertex -11.5 -26.4178 4
      vertex -13.0679 -26.4178 4
    endloop
  endfacet
  facet normal 0 -1 -0
    outer loop
      vertex -11.5 -26.4178 4
      vertex -13.0679 -26.4178 1.5
      vertex -11.5 -26.4178 1.5
    endloop
  endfacet
  facet normal -0.207913 -0.978147 0
    outer loop
      vertex -16.1353 -25.7658 1.5
      vertex -13.0679 -26.4178 4
      vertex -16.1353 -25.7658 4
    endloop
  endfacet
  facet normal -0.207913 -0.978147 -0
    outer loop
      vertex -13.0679 -26.4178 4
      vertex -16.1353 -25.7658 1.5
      vertex -13.0679 -26.4178 1.5
    endloop
  endfacet
  facet normal -0.951057 -0.309015 0
    outer loop
      vertex -25.2032 -17.601 1.5
      vertex -26.1722 -14.6187 4
      vertex -26.1722 -14.6187 1.5
    endloop
  endfacet
  facet normal -0.951057 -0.309015 0
    outer loop
      vertex -26.1722 -14.6187 4
      vertex -25.2032 -17.601 1.5
      vertex -25.2032 -17.601 4
    endloop
  endfacet
  facet normal -0.406724 -0.913551 0
    outer loop
      vertex -19 -24.4904 1.5
      vertex -16.1353 -25.7658 4
      vertex -19 -24.4904 4
    endloop
  endfacet
  facet normal -0.406724 -0.913551 -0
    outer loop
      vertex -16.1353 -25.7658 4
      vertex -19 -24.4904 1.5
      vertex -16.1353 -25.7658 1.5
    endloop
  endfacet
  facet normal -0.587777 -0.809023 0
    outer loop
      vertex -21.537 -22.6472 1.5
      vertex -19 -24.4904 4
      vertex -21.537 -22.6472 4
    endloop
  endfacet
  facet normal -0.587777 -0.809023 -0
    outer loop
      vertex -19 -24.4904 4
      vertex -21.537 -22.6472 1.5
      vertex -19 -24.4904 1.5
    endloop
  endfacet
  facet normal -0 0 1
    outer loop
      vertex -12.0679 -25.4178 4
      vertex -10.5 -25.5 4
      vertex -10.5 -25.4178 4
    endloop
  endfacet
  facet normal 0 0 1
    outer loop
      vertex -10.5 -25.5 4
      vertex -12.0679 -25.4178 4
      vertex -11.5 -26.4178 4
    endloop
  endfacet
  facet normal 0 0 1
    outer loop
      vertex -12.0679 -25.4178 4
      vertex -13.0679 -26.4178 4
      vertex -11.5 -26.4178 4
    endloop
  endfacet
  facet normal 0 0 1
    outer loop
      vertex -15.1353 -24.7658 4
      vertex -13.0679 -26.4178 4
      vertex -12.0679 -25.4178 4
    endloop
  endfacet
  facet normal 0 0 1
    outer loop
      vertex -15.1353 -24.7658 4
      vertex -16.1353 -25.7658 4
      vertex -13.0679 -26.4178 4
    endloop
  endfacet
  facet normal 0 0 1
    outer loop
      vertex -18 -23.4904 4
      vertex -16.1353 -25.7658 4
      vertex -15.1353 -24.7658 4
    endloop
  endfacet
  facet normal 0 0 1
    outer loop
      vertex -18 -23.4904 4
      vertex -19 -24.4904 4
      vertex -16.1353 -25.7658 4
    endloop
  endfacet
  facet normal 0 0 1
    outer loop
      vertex -20.537 -21.6472 4
      vertex -19 -24.4904 4
      vertex -18 -23.4904 4
    endloop
  endfacet
  facet normal 0 0 1
    outer loop
      vertex -20.537 -21.6472 4
      vertex -21.537 -22.6472 4
      vertex -19 -24.4904 4
    endloop
  endfacet
  facet normal -0 0 1
    outer loop
      vertex -23.6353 -20.3168 4
      vertex -20.537 -21.6472 4
      vertex -22.6353 -19.3168 4
    endloop
  endfacet
  facet normal 0 0 1
    outer loop
      vertex -20.537 -21.6472 4
      vertex -23.6353 -20.3168 4
      vertex -21.537 -22.6472 4
    endloop
  endfacet
  facet normal -0 0 1
    outer loop
      vertex -25.2032 -17.601 4
      vertex -22.6353 -19.3168 4
      vertex -24.2032 -16.601 4
    endloop
  endfacet
  facet normal -0 0 1
    outer loop
      vertex -26.1722 -14.6187 4
      vertex -24.2032 -16.601 4
      vertex -25.1722 -13.6187 4
    endloop
  endfacet
  facet normal 0 0 1
    outer loop
      vertex -22.6353 -19.3168 4
      vertex -25.2032 -17.601 4
      vertex -23.6353 -20.3168 4
    endloop
  endfacet
  facet normal -0 0 1
    outer loop
      vertex -26.5 -11.5 4
      vertex -25.1722 -13.6187 4
      vertex -25.5 -10.5 4
    endloop
  endfacet
  facet normal 0 0 1
    outer loop
      vertex -24.2032 -16.601 4
      vertex -26.1722 -14.6187 4
      vertex -25.2032 -17.601 4
    endloop
  endfacet
  facet normal 0 0 1
    outer loop
      vertex -25.5 10.5 4
      vertex -26.5 11.5 4
      vertex -25.5 -10.5 4
    endloop
  endfacet
  facet normal 0 0 1
    outer loop
      vertex -26.5 -11.5 4
      vertex -25.5 -10.5 4
      vertex -26.5 11.5 4
    endloop
  endfacet
  facet normal 0 0 1
    outer loop
      vertex -25.1722 -13.6187 4
      vertex -26.5 -11.5 4
      vertex -26.1722 -14.6187 4
    endloop
  endfacet
  facet normal 0 0 1
    outer loop
      vertex 11.5 26.5 4
      vertex 10.5 25.5 4
      vertex 11.5 26.4178 4
    endloop
  endfacet
  facet normal 0 0 1
    outer loop
      vertex 11.5 26.5 4
      vertex -10.5 25.5 4
      vertex 10.5 25.5 4
    endloop
  endfacet
  facet normal -0 0 1
    outer loop
      vertex -11.5 26.5 4
      vertex -10.5 25.5 4
      vertex 11.5 26.5 4
    endloop
  endfacet
  facet normal -0 0 1
    outer loop
      vertex -11.5 26.4178 4
      vertex -10.5 25.5 4
      vertex -11.5 26.5 4
    endloop
  endfacet
  facet normal 0 0 1
    outer loop
      vertex -12.0679 25.4178 4
      vertex -10.5 25.5 4
      vertex -11.5 26.4178 4
    endloop
  endfacet
  facet normal 0 0 1
    outer loop
      vertex -10.5 25.5 4
      vertex -12.0679 25.4178 4
      vertex -10.5 25.4178 4
    endloop
  endfacet
  facet normal -0 0 1
    outer loop
      vertex -13.0679 26.4178 4
      vertex -12.0679 25.4178 4
      vertex -11.5 26.4178 4
    endloop
  endfacet
  facet normal 0 0 1
    outer loop
      vertex -13.0679 26.4178 4
      vertex -15.1353 24.7658 4
      vertex -12.0679 25.4178 4
    endloop
  endfacet
  facet normal -0 0 1
    outer loop
      vertex -16.1353 25.7658 4
      vertex -15.1353 24.7658 4
      vertex -13.0679 26.4178 4
    endloop
  endfacet
  facet normal 0 0 1
    outer loop
      vertex -16.1353 25.7658 4
      vertex -18 23.4904 4
      vertex -15.1353 24.7658 4
    endloop
  endfacet
  facet normal -0 0 1
    outer loop
      vertex -19 24.4904 4
      vertex -18 23.4904 4
      vertex -16.1353 25.7658 4
    endloop
  endfacet
  facet normal 0 0 1
    outer loop
      vertex -19 24.4904 4
      vertex -20.537 21.6472 4
      vertex -18 23.4904 4
    endloop
  endfacet
  facet normal -0 0 1
    outer loop
      vertex -21.537 22.6472 4
      vertex -20.537 21.6472 4
      vertex -19 24.4904 4
    endloop
  endfacet
  facet normal 0 0 1
    outer loop
      vertex -23.6353 20.3168 4
      vertex -20.537 21.6472 4
      vertex -21.537 22.6472 4
    endloop
  endfacet
  facet normal 0 0 1
    outer loop
      vertex -20.537 21.6472 4
      vertex -23.6353 20.3168 4
      vertex -22.6353 19.3168 4
    endloop
  endfacet
  facet normal 0 0 1
    outer loop
      vertex -25.2032 17.601 4
      vertex -22.6353 19.3168 4
      vertex -23.6353 20.3168 4
    endloop
  endfacet
  facet normal 0 0 1
    outer loop
      vertex -22.6353 19.3168 4
      vertex -25.2032 17.601 4
      vertex -24.2032 16.601 4
    endloop
  endfacet
  facet normal 0 0 1
    outer loop
      vertex -26.1722 14.6187 4
      vertex -24.2032 16.601 4
      vertex -25.2032 17.601 4
    endloop
  endfacet
  facet normal 0 0 1
    outer loop
      vertex -24.2032 16.601 4
      vertex -26.1722 14.6187 4
      vertex -25.1722 13.6187 4
    endloop
  endfacet
  facet normal 0 0 1
    outer loop
      vertex -25.1722 13.6187 4
      vertex -26.5 11.5 4
      vertex -25.5 10.5 4
    endloop
  endfacet
  facet normal 0 0 1
    outer loop
      vertex -26.5 11.5 4
      vertex -25.1722 13.6187 4
      vertex -26.1722 14.6187 4
    endloop
  endfacet
  facet normal -0 0 1
    outer loop
      vertex 25.1722 13.6187 4
      vertex 26.5 11.5 4
      vertex 26.1722 14.6187 4
    endloop
  endfacet
  facet normal 0 0 1
    outer loop
      vertex 26.5 11.5 4
      vertex 25.5 10.5 4
      vertex 26.5 -11.5 4
    endloop
  endfacet
  facet normal -0 0 1
    outer loop
      vertex 25.5 -10.5 4
      vertex 26.5 -11.5 4
      vertex 25.5 10.5 4
    endloop
  endfacet
  facet normal -0 0 1
    outer loop
      vertex 24.2032 16.601 4
      vertex 26.1722 14.6187 4
      vertex 25.2032 17.601 4
    endloop
  endfacet
  facet normal 0 0 1
    outer loop
      vertex 26.5 11.5 4
      vertex 25.1722 13.6187 4
      vertex 25.5 10.5 4
    endloop
  endfacet
  facet normal 0 0 1
    outer loop
      vertex 26.1722 14.6187 4
      vertex 24.2032 16.601 4
      vertex 25.1722 13.6187 4
    endloop
  endfacet
  facet normal -0 0 1
    outer loop
      vertex 22.6353 19.3168 4
      vertex 25.2032 17.601 4
      vertex 23.6353 20.3168 4
    endloop
  endfacet
  facet normal 0 0 1
    outer loop
      vertex 25.2032 17.601 4
      vertex 22.6353 19.3168 4
      vertex 24.2032 16.601 4
    endloop
  endfacet
  facet normal -0 0 1
    outer loop
      vertex 20.537 21.6472 4
      vertex 23.6353 20.3168 4
      vertex 21.537 22.6472 4
    endloop
  endfacet
  facet normal 0 0 1
    outer loop
      vertex 23.6353 20.3168 4
      vertex 20.537 21.6472 4
      vertex 22.6353 19.3168 4
    endloop
  endfacet
  facet normal 0 0 1
    outer loop
      vertex 19 24.4904 4
      vertex 20.537 21.6472 4
      vertex 21.537 22.6472 4
    endloop
  endfacet
  facet normal 0 0 1
    outer loop
      vertex 19 24.4904 4
      vertex 18 23.4904 4
      vertex 20.537 21.6472 4
    endloop
  endfacet
  facet normal 0 0 1
    outer loop
      vertex 16.1353 25.7658 4
      vertex 18 23.4904 4
      vertex 19 24.4904 4
    endloop
  endfacet
  facet normal 0 0 1
    outer loop
      vertex 16.1353 25.7658 4
      vertex 15.1353 24.7658 4
      vertex 18 23.4904 4
    endloop
  endfacet
  facet normal 0 0 1
    outer loop
      vertex 13.0679 26.4178 4
      vertex 15.1353 24.7658 4
      vertex 16.1353 25.7658 4
    endloop
  endfacet
  facet normal 0 0 1
    outer loop
      vertex 13.0679 26.4178 4
      vertex 12.0679 25.4178 4
      vertex 15.1353 24.7658 4
    endloop
  endfacet
  facet normal -0 0 1
    outer loop
      vertex 11.5 26.4178 4
      vertex 12.0679 25.4178 4
      vertex 13.0679 26.4178 4
    endloop
  endfacet
  facet normal -0 0 1
    outer loop
      vertex 10.5 25.5 4
      vertex 12.0679 25.4178 4
      vertex 11.5 26.4178 4
    endloop
  endfacet
  facet normal 0 0 1
    outer loop
      vertex 12.0679 25.4178 4
      vertex 10.5 25.5 4
      vertex 10.5 25.4178 4
    endloop
  endfacet
  facet normal 0 0 1
    outer loop
      vertex 25.1722 -13.6187 4
      vertex 26.5 -11.5 4
      vertex 25.5 -10.5 4
    endloop
  endfacet
  facet normal 0 0 1
    outer loop
      vertex 26.5 -11.5 4
      vertex 25.1722 -13.6187 4
      vertex 26.1722 -14.6187 4
    endloop
  endfacet
  facet normal 0 0 1
    outer loop
      vertex 24.2032 -16.601 4
      vertex 26.1722 -14.6187 4
      vertex 25.1722 -13.6187 4
    endloop
  endfacet
  facet normal 0 0 1
    outer loop
      vertex 26.1722 -14.6187 4
      vertex 24.2032 -16.601 4
      vertex 25.2032 -17.601 4
    endloop
  endfacet
  facet normal 0 0 1
    outer loop
      vertex 22.6353 -19.3168 4
      vertex 25.2032 -17.601 4
      vertex 24.2032 -16.601 4
    endloop
  endfacet
  facet normal 0 0 1
    outer loop
      vertex 25.2032 -17.601 4
      vertex 22.6353 -19.3168 4
      vertex 23.6353 -20.3168 4
    endloop
  endfacet
  facet normal 0 0 1
    outer loop
      vertex 20.537 -21.6472 4
      vertex 23.6353 -20.3168 4
      vertex 22.6353 -19.3168 4
    endloop
  endfacet
  facet normal 0 0 1
    outer loop
      vertex 23.6353 -20.3168 4
      vertex 20.537 -21.6472 4
      vertex 21.537 -22.6472 4
    endloop
  endfacet
  facet normal 0 0 1
    outer loop
      vertex 20.537 -21.6472 4
      vertex 19 -24.4904 4
      vertex 21.537 -22.6472 4
    endloop
  endfacet
  facet normal -0 0 1
    outer loop
      vertex 18 -23.4904 4
      vertex 19 -24.4904 4
      vertex 20.537 -21.6472 4
    endloop
  endfacet
  facet normal 0 0 1
    outer loop
      vertex 18 -23.4904 4
      vertex 16.1353 -25.7658 4
      vertex 19 -24.4904 4
    endloop
  endfacet
  facet normal -0 0 1
    outer loop
      vertex 15.1353 -24.7658 4
      vertex 16.1353 -25.7658 4
      vertex 18 -23.4904 4
    endloop
  endfacet
  facet normal 0 0 1
    outer loop
      vertex 15.1353 -24.7658 4
      vertex 13.0679 -26.4178 4
      vertex 16.1353 -25.7658 4
    endloop
  endfacet
  facet normal -0 0 1
    outer loop
      vertex 12.0679 -25.4178 4
      vertex 13.0679 -26.4178 4
      vertex 15.1353 -24.7658 4
    endloop
  endfacet
  facet normal 0 0 1
    outer loop
      vertex 12.0679 -25.4178 4
      vertex 11.5 -26.4178 4
      vertex 13.0679 -26.4178 4
    endloop
  endfacet
  facet normal 0 0 1
    outer loop
      vertex 10.5 -25.5 4
      vertex 12.0679 -25.4178 4
      vertex 10.5 -25.4178 4
    endloop
  endfacet
  facet normal 0 0 1
    outer loop
      vertex 12.0679 -25.4178 4
      vertex 10.5 -25.5 4
      vertex 11.5 -26.4178 4
    endloop
  endfacet
  facet normal 0 0 1
    outer loop
      vertex 11.5 -26.4178 4
      vertex 10.5 -25.5 4
      vertex 11.5 -26.5 4
    endloop
  endfacet
  facet normal -0 0 1
    outer loop
      vertex -10.5 -25.5 4
      vertex 11.5 -26.5 4
      vertex 10.5 -25.5 4
    endloop
  endfacet
  facet normal 0 0 1
    outer loop
      vertex -11.5 -26.5 4
      vertex -10.5 -25.5 4
      vertex -11.5 -26.4178 4
    endloop
  endfacet
  facet normal 0 0 1
    outer loop
      vertex -10.5 -25.5 4
      vertex -11.5 -26.5 4
      vertex 11.5 -26.5 4
    endloop
  endfacet
  facet normal 0 0 -1
    outer loop
      vertex -30 -30 0
      vertex 30 30 0
      vertex 30 -30 0
    endloop
  endfacet
  facet normal -0 0 -1
    outer loop
      vertex 30 30 0
      vertex -30 -30 0
      vertex -30 30 0
    endloop
  endfacet
  facet normal -0.866035 -0.499984 0
    outer loop
      vertex -23.6353 -20.3168 1.5
      vertex -25.2032 -17.601 4
      vertex -25.2032 -17.601 1.5
    endloop
  endfacet
  facet normal -0.866035 -0.499984 0
    outer loop
      vertex -25.2032 -17.601 4
      vertex -23.6353 -20.3168 1.5
      vertex -23.6353 -20.3168 4
    endloop
  endfacet
  facet normal -0.743145 -0.66913 0
    outer loop
      vertex -21.537 -22.6472 1.5
      vertex -23.6353 -20.3168 4
      vertex -23.6353 -20.3168 1.5
    endloop
  endfacet
  facet normal -0.743145 -0.66913 0
    outer loop
      vertex -23.6353 -20.3168 4
      vertex -21.537 -22.6472 1.5
      vertex -21.537 -22.6472 4
    endloop
  endfacet
  facet normal -0.994522 -0.104532 0
    outer loop
      vertex -26.1722 -14.6187 1.5
      vertex -26.5 -11.5 4
      vertex -26.5 -11.5 1.5
    endloop
  endfacet
  facet normal -0.994522 -0.104532 0
    outer loop
      vertex -26.5 -11.5 4
      vertex -26.1722 -14.6187 1.5
      vertex -26.1722 -14.6187 4
    endloop
  endfacet
  facet normal -0.207913 0.978147 0
    outer loop
      vertex -13.0679 26.4178 1.5
      vertex -16.1353 25.7658 4
      vertex -13.0679 26.4178 4
    endloop
  endfacet
  facet normal -0.207913 0.978147 0
    outer loop
      vertex -16.1353 25.7658 4
      vertex -13.0679 26.4178 1.5
      vertex -16.1353 25.7658 1.5
    endloop
  endfacet
  facet normal -0.994522 0.104532 0
    outer loop
      vertex -26.5 11.5 1.5
      vertex -26.1722 14.6187 4
      vertex -26.1722 14.6187 1.5
    endloop
  endfacet
  facet normal -0.994522 0.104532 0
    outer loop
      vertex -26.1722 14.6187 4
      vertex -26.5 11.5 1.5
      vertex -26.5 11.5 4
    endloop
  endfacet
  facet normal -0.743145 0.66913 0
    outer loop
      vertex -23.6353 20.3168 1.5
      vertex -21.537 22.6472 4
      vertex -21.537 22.6472 1.5
    endloop
  endfacet
  facet normal -0.743145 0.66913 0
    outer loop
      vertex -21.537 22.6472 4
      vertex -23.6353 20.3168 1.5
      vertex -23.6353 20.3168 4
    endloop
  endfacet
  facet normal -0.406724 0.913551 0
    outer loop
      vertex -16.1353 25.7658 1.5
      vertex -19 24.4904 4
      vertex -16.1353 25.7658 4
    endloop
  endfacet
  facet normal -0.406724 0.913551 0
    outer loop
      vertex -19 24.4904 4
      vertex -16.1353 25.7658 1.5
      vertex -19 24.4904 1.5
    endloop
  endfacet
  facet normal -0.951057 0.309015 0
    outer loop
      vertex -26.1722 14.6187 1.5
      vertex -25.2032 17.601 4
      vertex -25.2032 17.601 1.5
    endloop
  endfacet
  facet normal -0.951057 0.309015 0
    outer loop
      vertex -25.2032 17.601 4
      vertex -26.1722 14.6187 1.5
      vertex -26.1722 14.6187 4
    endloop
  endfacet
  facet normal 0 1 -0
    outer loop
      vertex -11.5 26.4178 1.5
      vertex -13.0679 26.4178 4
      vertex -11.5 26.4178 4
    endloop
  endfacet
  facet normal 0 1 0
    outer loop
      vertex -13.0679 26.4178 4
      vertex -11.5 26.4178 1.5
      vertex -13.0679 26.4178 1.5
    endloop
  endfacet
  facet normal -0.587777 0.809023 0
    outer loop
      vertex -19 24.4904 1.5
      vertex -21.537 22.6472 4
      vertex -19 24.4904 4
    endloop
  endfacet
  facet normal -0.587777 0.809023 0
    outer loop
      vertex -21.537 22.6472 4
      vertex -19 24.4904 1.5
      vertex -21.537 22.6472 1.5
    endloop
  endfacet
  facet normal -0.866035 0.499984 0
    outer loop
      vertex -25.2032 17.601 1.5
      vertex -23.6353 20.3168 4
      vertex -23.6353 20.3168 1.5
    endloop
  endfacet
  facet normal -0.866035 0.499984 0
    outer loop
      vertex -23.6353 20.3168 4
      vertex -25.2032 17.601 1.5
      vertex -25.2032 17.601 4
    endloop
  endfacet
  facet normal 0.951057 -0.309015 0
    outer loop
      vertex 25.2032 -17.601 4
      vertex 26.1722 -14.6187 1.5
      vertex 26.1722 -14.6187 4
    endloop
  endfacet
  facet normal 0.951057 -0.309015 0
    outer loop
      vertex 26.1722 -14.6187 1.5
      vertex 25.2032 -17.601 4
      vertex 25.2032 -17.601 1.5
    endloop
  endfacet
  facet normal 0.994522 -0.104532 0
    outer loop
      vertex 26.1722 -14.6187 4
      vertex 26.5 -11.5 1.5
      vertex 26.5 -11.5 4
    endloop
  endfacet
  facet normal 0.994522 -0.104532 0
    outer loop
      vertex 26.5 -11.5 1.5
      vertex 26.1722 -14.6187 4
      vertex 26.1722 -14.6187 1.5
    endloop
  endfacet
  facet normal 0.587777 -0.809023 0
    outer loop
      vertex 19 -24.4904 1.5
      vertex 21.537 -22.6472 4
      vertex 19 -24.4904 4
    endloop
  endfacet
  facet normal 0.587777 -0.809023 0
    outer loop
      vertex 21.537 -22.6472 4
      vertex 19 -24.4904 1.5
      vertex 21.537 -22.6472 1.5
    endloop
  endfacet
  facet normal 0.866035 -0.499984 0
    outer loop
      vertex 23.6353 -20.3168 4
      vertex 25.2032 -17.601 1.5
      vertex 25.2032 -17.601 4
    endloop
  endfacet
  facet normal 0.866035 -0.499984 0
    outer loop
      vertex 25.2032 -17.601 1.5
      vertex 23.6353 -20.3168 4
      vertex 23.6353 -20.3168 1.5
    endloop
  endfacet
  facet normal 0.207913 -0.978147 0
    outer loop
      vertex 13.0679 -26.4178 1.5
      vertex 16.1353 -25.7658 4
      vertex 13.0679 -26.4178 4
    endloop
  endfacet
  facet normal 0.207913 -0.978147 0
    outer loop
      vertex 16.1353 -25.7658 4
      vertex 13.0679 -26.4178 1.5
      vertex 16.1353 -25.7658 1.5
    endloop
  endfacet
  facet normal 0.743145 -0.66913 0
    outer loop
      vertex 21.537 -22.6472 4
      vertex 23.6353 -20.3168 1.5
      vertex 23.6353 -20.3168 4
    endloop
  endfacet
  facet normal 0.743145 -0.66913 0
    outer loop
      vertex 23.6353 -20.3168 1.5
      vertex 21.537 -22.6472 4
      vertex 21.537 -22.6472 1.5
    endloop
  endfacet
  facet normal 0.406724 -0.913551 0
    outer loop
      vertex 16.1353 -25.7658 1.5
      vertex 19 -24.4904 4
      vertex 16.1353 -25.7658 4
    endloop
  endfacet
  facet normal 0.406724 -0.913551 0
    outer loop
      vertex 19 -24.4904 4
      vertex 16.1353 -25.7658 1.5
      vertex 19 -24.4904 1.5
    endloop
  endfacet
  facet normal 0 -1 0
    outer loop
      vertex 11.5 -26.4178 1.5
      vertex 13.0679 -26.4178 4
      vertex 11.5 -26.4178 4
    endloop
  endfacet
  facet normal 0 -1 -0
    outer loop
      vertex 13.0679 -26.4178 4
      vertex 11.5 -26.4178 1.5
      vertex 13.0679 -26.4178 1.5
    endloop
  endfacet
  facet normal 0 1 -0
    outer loop
      vertex 13.0679 26.4178 1.5
      vertex 11.5 26.4178 4
      vertex 13.0679 26.4178 4
    endloop
  endfacet
  facet normal 0 1 0
    outer loop
      vertex 11.5 26.4178 4
      vertex 13.0679 26.4178 1.5
      vertex 11.5 26.4178 1.5
    endloop
  endfacet
  facet normal 0.951057 0.309015 0
    outer loop
      vertex 26.1722 14.6187 4
      vertex 25.2032 17.601 1.5
      vertex 25.2032 17.601 4
    endloop
  endfacet
  facet normal 0.951057 0.309015 0
    outer loop
      vertex 25.2032 17.601 1.5
      vertex 26.1722 14.6187 4
      vertex 26.1722 14.6187 1.5
    endloop
  endfacet
  facet normal 0.994522 0.104532 0
    outer loop
      vertex 26.5 11.5 4
      vertex 26.1722 14.6187 1.5
      vertex 26.1722 14.6187 4
    endloop
  endfacet
  facet normal 0.994522 0.104532 0
    outer loop
      vertex 26.1722 14.6187 1.5
      vertex 26.5 11.5 4
      vertex 26.5 11.5 1.5
    endloop
  endfacet
  facet normal 0.866035 0.499984 0
    outer loop
      vertex 25.2032 17.601 4
      vertex 23.6353 20.3168 1.5
      vertex 23.6353 20.3168 4
    endloop
  endfacet
  facet normal 0.866035 0.499984 0
    outer loop
      vertex 23.6353 20.3168 1.5
      vertex 25.2032 17.601 4
      vertex 25.2032 17.601 1.5
    endloop
  endfacet
  facet normal 0.743145 0.66913 0
    outer loop
      vertex 23.6353 20.3168 4
      vertex 21.537 22.6472 1.5
      vertex 21.537 22.6472 4
    endloop
  endfacet
  facet normal 0.743145 0.66913 0
    outer loop
      vertex 21.537 22.6472 1.5
      vertex 23.6353 20.3168 4
      vertex 23.6353 20.3168 1.5
    endloop
  endfacet
  facet normal 0.207913 0.978147 -0
    outer loop
      vertex 16.1353 25.7658 1.5
      vertex 13.0679 26.4178 4
      vertex 16.1353 25.7658 4
    endloop
  endfacet
  facet normal 0.207913 0.978147 0
    outer loop
      vertex 13.0679 26.4178 4
      vertex 16.1353 25.7658 1.5
      vertex 13.0679 26.4178 1.5
    endloop
  endfacet
  facet normal 0.587777 0.809023 -0
    outer loop
      vertex 21.537 22.6472 1.5
      vertex 19 24.4904 4
      vertex 21.537 22.6472 4
    endloop
  endfacet
  facet normal 0.587777 0.809023 0
    outer loop
      vertex 19 24.4904 4
      vertex 21.537 22.6472 1.5
      vertex 19 24.4904 1.5
    endloop
  endfacet
  facet normal 0.406724 0.913551 -0
    outer loop
      vertex 19 24.4904 1.5
      vertex 16.1353 25.7658 4
      vertex 19 24.4904 4
    endloop
  endfacet
  facet normal 0.406724 0.913551 0
    outer loop
      vertex 16.1353 25.7658 4
      vertex 19 24.4904 1.5
      vertex 16.1353 25.7658 1.5
    endloop
  endfacet
  facet normal 1 -0 0
    outer loop
      vertex 11.5 26.4178 4
      vertex 11.5 26.5 1.5
      vertex 11.5 26.5 4
    endloop
  endfacet
  facet normal 1 0 0
    outer loop
      vertex 11.5 26.5 1.5
      vertex 11.5 26.4178 4
      vertex 11.5 26.4178 1.5
    endloop
  endfacet
  facet normal 1 -0 0
    outer loop
      vertex 11.5 -26.5 4
      vertex 11.5 -26.4178 1.5
      vertex 11.5 -26.4178 4
    endloop
  endfacet
  facet normal 1 0 0
    outer loop
      vertex 11.5 -26.4178 1.5
      vertex 11.5 -26.5 4
      vertex 11.5 -26.5 1.5
    endloop
  endfacet
  facet normal -1 0 0
    outer loop
      vertex -11.5 26.4178 1.5
      vertex -11.5 26.5 4
      vertex -11.5 26.5 1.5
    endloop
  endfacet
  facet normal -1 -0 0
    outer loop
      vertex -11.5 26.5 4
      vertex -11.5 26.4178 1.5
      vertex -11.5 26.4178 4
    endloop
  endfacet
  facet normal -1 0 0
    outer loop
      vertex -11.5 -26.5 1.5
      vertex -11.5 -26.4178 4
      vertex -11.5 -26.4178 1.5
    endloop
  endfacet
  facet normal -1 -0 0
    outer loop
      vertex -11.5 -26.4178 4
      vertex -11.5 -26.5 1.5
      vertex -11.5 -26.5 4
    endloop
  endfacet
  facet normal 0 1 -0
    outer loop
      vertex 11.5 26.5 1.5
      vertex -11.5 26.5 4
      vertex 11.5 26.5 4
    endloop
  endfacet
  facet normal 0 1 0
    outer loop
      vertex -11.5 26.5 4
      vertex 11.5 26.5 1.5
      vertex -11.5 26.5 1.5
    endloop
  endfacet
  facet normal 0 -1 0
    outer loop
      vertex -11.5 -26.5 1.5
      vertex 11.5 -26.5 4
      vertex -11.5 -26.5 4
    endloop
  endfacet
  facet normal 0 -1 -0
    outer loop
      vertex 11.5 -26.5 4
      vertex -11.5 -26.5 1.5
      vertex 11.5 -26.5 1.5
    endloop
  endfacet
  facet normal 1 -0 0
    outer loop
      vertex 26.5 -11.5 4
      vertex 26.5 11.5 1.5
      vertex 26.5 11.5 4
    endloop
  endfacet
  facet normal 1 0 0
    outer loop
      vertex 26.5 11.5 1.5
      vertex 26.5 -11.5 4
      vertex 26.5 -11.5 1.5
    endloop
  endfacet
  facet normal -1 0 0
    outer loop
      vertex -26.5 -11.5 1.5
      vertex -26.5 11.5 4
      vertex -26.5 11.5 1.5
    endloop
  endfacet
  facet normal -1 -0 0
    outer loop
      vertex -26.5 11.5 4
      vertex -26.5 -11.5 1.5
      vertex -26.5 -11.5 4
    endloop
  endfacet
  facet normal 1 -0 0
    outer loop
      vertex 30 -30 1.5
      vertex 30 30 0
      vertex 30 30 1.5
    endloop
  endfacet
  facet normal 1 0 0
    outer loop
      vertex 30 30 0
      vertex 30 -30 1.5
      vertex 30 -30 0
    endloop
  endfacet
  facet normal 0 0 1
    outer loop
      vertex -11.5 -26.4178 1.5
      vertex -13.0679 -26.4178 1.5
      vertex -11.5 -26.5 1.5
    endloop
  endfacet
  facet normal 0 0 1
    outer loop
      vertex 30 30 1.5
      vertex 26.5 11.5 1.5
      vertex 30 -30 1.5
    endloop
  endfacet
  facet normal 0 0 1
    outer loop
      vertex 30 30 1.5
      vertex 26.1722 14.6187 1.5
      vertex 26.5 11.5 1.5
    endloop
  endfacet
  facet normal 0 0 1
    outer loop
      vertex 30 30 1.5
      vertex 25.2032 17.601 1.5
      vertex 26.1722 14.6187 1.5
    endloop
  endfacet
  facet normal 0 0 1
    outer loop
      vertex 30 30 1.5
      vertex 23.6353 20.3168 1.5
      vertex 25.2032 17.601 1.5
    endloop
  endfacet
  facet normal 0 0 1
    outer loop
      vertex 30 30 1.5
      vertex 21.537 22.6472 1.5
      vertex 23.6353 20.3168 1.5
    endloop
  endfacet
  facet normal 0 0 1
    outer loop
      vertex 30 30 1.5
      vertex 19 24.4904 1.5
      vertex 21.537 22.6472 1.5
    endloop
  endfacet
  facet normal 0 0 1
    outer loop
      vertex 30 30 1.5
      vertex 16.1353 25.7658 1.5
      vertex 19 24.4904 1.5
    endloop
  endfacet
  facet normal 0 0 1
    outer loop
      vertex 30 30 1.5
      vertex 13.0679 26.4178 1.5
      vertex 16.1353 25.7658 1.5
    endloop
  endfacet
  facet normal 0 0 1
    outer loop
      vertex 30 30 1.5
      vertex 11.5 26.5 1.5
      vertex 13.0679 26.4178 1.5
    endloop
  endfacet
  facet normal 0 0 1
    outer loop
      vertex 30 30 1.5
      vertex -11.5 26.5 1.5
      vertex 11.5 26.5 1.5
    endloop
  endfacet
  facet normal 0 0 1
    outer loop
      vertex -11.5 26.5 1.5
      vertex -13.0679 26.4178 1.5
      vertex -11.5 26.4178 1.5
    endloop
  endfacet
  facet normal -0 0 1
    outer loop
      vertex -30 30 1.5
      vertex -11.5 26.5 1.5
      vertex 30 30 1.5
    endloop
  endfacet
  facet normal 0 0 1
    outer loop
      vertex -26.5 11.5 1.5
      vertex -30 30 1.5
      vertex -26.5 -11.5 1.5
    endloop
  endfacet
  facet normal 0 0 1
    outer loop
      vertex -26.1722 14.6187 1.5
      vertex -30 30 1.5
      vertex -26.5 11.5 1.5
    endloop
  endfacet
  facet normal 0 0 1
    outer loop
      vertex -25.2032 17.601 1.5
      vertex -30 30 1.5
      vertex -26.1722 14.6187 1.5
    endloop
  endfacet
  facet normal 0 0 1
    outer loop
      vertex -23.6353 20.3168 1.5
      vertex -30 30 1.5
      vertex -25.2032 17.601 1.5
    endloop
  endfacet
  facet normal 0 0 1
    outer loop
      vertex -21.537 22.6472 1.5
      vertex -30 30 1.5
      vertex -23.6353 20.3168 1.5
    endloop
  endfacet
  facet normal 0 0 1
    outer loop
      vertex -19 24.4904 1.5
      vertex -30 30 1.5
      vertex -21.537 22.6472 1.5
    endloop
  endfacet
  facet normal 0 0 1
    outer loop
      vertex -16.1353 25.7658 1.5
      vertex -30 30 1.5
      vertex -19 24.4904 1.5
    endloop
  endfacet
  facet normal 0 0 1
    outer loop
      vertex -13.0679 26.4178 1.5
      vertex -30 30 1.5
      vertex -16.1353 25.7658 1.5
    endloop
  endfacet
  facet normal 0 0 1
    outer loop
      vertex -11.5 26.5 1.5
      vertex -30 30 1.5
      vertex -13.0679 26.4178 1.5
    endloop
  endfacet
  facet normal -0 0 1
    outer loop
      vertex 26.5 -11.5 1.5
      vertex 30 -30 1.5
      vertex 26.5 11.5 1.5
    endloop
  endfacet
  facet normal -0 0 1
    outer loop
      vertex 26.1722 -14.6187 1.5
      vertex 30 -30 1.5
      vertex 26.5 -11.5 1.5
    endloop
  endfacet
  facet normal -0 0 1
    outer loop
      vertex 25.2032 -17.601 1.5
      vertex 30 -30 1.5
      vertex 26.1722 -14.6187 1.5
    endloop
  endfacet
  facet normal -0 0 1
    outer loop
      vertex 23.6353 -20.3168 1.5
      vertex 30 -30 1.5
      vertex 25.2032 -17.601 1.5
    endloop
  endfacet
  facet normal -0 0 1
    outer loop
      vertex 21.537 -22.6472 1.5
      vertex 30 -30 1.5
      vertex 23.6353 -20.3168 1.5
    endloop
  endfacet
  facet normal -0 0 1
    outer loop
      vertex 19 -24.4904 1.5
      vertex 30 -30 1.5
      vertex 21.537 -22.6472 1.5
    endloop
  endfacet
  facet normal -0 0 1
    outer loop
      vertex 16.1353 -25.7658 1.5
      vertex 30 -30 1.5
      vertex 19 -24.4904 1.5
    endloop
  endfacet
  facet normal -0 0 1
    outer loop
      vertex 13.0679 -26.4178 1.5
      vertex 30 -30 1.5
      vertex 16.1353 -25.7658 1.5
    endloop
  endfacet
  facet normal 0 0 1
    outer loop
      vertex 11.5 -26.5 1.5
      vertex 13.0679 -26.4178 1.5
      vertex 11.5 -26.4178 1.5
    endloop
  endfacet
  facet normal 0 0 1
    outer loop
      vertex 13.0679 -26.4178 1.5
      vertex 11.5 -26.5 1.5
      vertex 30 -30 1.5
    endloop
  endfacet
  facet normal -0 0 1
    outer loop
      vertex -11.5 -26.5 1.5
      vertex 30 -30 1.5
      vertex 11.5 -26.5 1.5
    endloop
  endfacet
  facet normal 0 0 1
    outer loop
      vertex -30 -30 1.5
      vertex -11.5 -26.5 1.5
      vertex -13.0679 -26.4178 1.5
    endloop
  endfacet
  facet normal 0 0 1
    outer loop
      vertex -11.5 -26.5 1.5
      vertex -30 -30 1.5
      vertex 30 -30 1.5
    endloop
  endfacet
  facet normal 0 0 1
    outer loop
      vertex -16.1353 -25.7658 1.5
      vertex -30 -30 1.5
      vertex -13.0679 -26.4178 1.5
    endloop
  endfacet
  facet normal 0 0 1
    outer loop
      vertex -19 -24.4904 1.5
      vertex -30 -30 1.5
      vertex -16.1353 -25.7658 1.5
    endloop
  endfacet
  facet normal 0 0 1
    outer loop
      vertex -21.537 -22.6472 1.5
      vertex -30 -30 1.5
      vertex -19 -24.4904 1.5
    endloop
  endfacet
  facet normal 0 0 1
    outer loop
      vertex -23.6353 -20.3168 1.5
      vertex -30 -30 1.5
      vertex -21.537 -22.6472 1.5
    endloop
  endfacet
  facet normal 0 0 1
    outer loop
      vertex -25.2032 -17.601 1.5
      vertex -30 -30 1.5
      vertex -23.6353 -20.3168 1.5
    endloop
  endfacet
  facet normal 0 0 1
    outer loop
      vertex -26.1722 -14.6187 1.5
      vertex -30 -30 1.5
      vertex -25.2032 -17.601 1.5
    endloop
  endfacet
  facet normal 0 0 1
    outer loop
      vertex -26.5 -11.5 1.5
      vertex -30 -30 1.5
      vertex -26.1722 -14.6187 1.5
    endloop
  endfacet
  facet normal 0 0 1
    outer loop
      vertex -30 -30 1.5
      vertex -26.5 -11.5 1.5
      vertex -30 30 1.5
    endloop
  endfacet
  facet normal 0 0 1
    outer loop
      vertex 13.0679 26.4178 1.5
      vertex 11.5 26.5 1.5
      vertex 11.5 26.4178 1.5
    endloop
  endfacet
  facet normal -1 0 0
    outer loop
      vertex -30 -30 0
      vertex -30 30 1.5
      vertex -30 30 0
    endloop
  endfacet
  facet normal -1 -0 0
    outer loop
      vertex -30 30 1.5
      vertex -30 -30 0
      vertex -30 -30 1.5
    endloop
  endfacet
  facet normal 0 1 -0
    outer loop
      vertex 30 30 0
      vertex -30 30 1.5
      vertex 30 30 1.5
    endloop
  endfacet
  facet normal 0 1 0
    outer loop
      vertex -30 30 1.5
      vertex 30 30 0
      vertex -30 30 0
    endloop
  endfacet
  facet normal 0 -1 0
    outer loop
      vertex -30 -30 0
      vertex 30 -30 1.5
      vertex -30 -30 1.5
    endloop
  endfacet
  facet normal 0 -1 -0
    outer loop
      vertex 30 -30 1.5
      vertex -30 -30 0
      vertex 30 -30 0
    endloop
  endfacet
  facet normal 0.587777 0.809023 -0
    outer loop
      vertex -18 -23.4904 1.5
      vertex -20.537 -21.6472 4
      vertex -18 -23.4904 4
    endloop
  endfacet
  facet normal 0.587777 0.809023 0
    outer loop
      vertex -20.537 -21.6472 4
      vertex -18 -23.4904 1.5
      vertex -20.537 -21.6472 1.5
    endloop
  endfacet
  facet normal 0.994522 0.104532 0
    outer loop
      vertex -25.1722 -13.6187 4
      vertex -25.5 -10.5 1.5
      vertex -25.5 -10.5 4
    endloop
  endfacet
  facet normal 0.994522 0.104532 0
    outer loop
      vertex -25.5 -10.5 1.5
      vertex -25.1722 -13.6187 4
      vertex -25.1722 -13.6187 1.5
    endloop
  endfacet
  facet normal 0.866035 0.499984 0
    outer loop
      vertex -22.6353 -19.3168 4
      vertex -24.2032 -16.601 1.5
      vertex -24.2032 -16.601 4
    endloop
  endfacet
  facet normal 0.866035 0.499984 0
    outer loop
      vertex -24.2032 -16.601 1.5
      vertex -22.6353 -19.3168 4
      vertex -22.6353 -19.3168 1.5
    endloop
  endfacet
  facet normal 0.207913 0.978147 -0
    outer loop
      vertex -12.0679 -25.4178 1.5
      vertex -15.1353 -24.7658 4
      vertex -12.0679 -25.4178 4
    endloop
  endfacet
  facet normal 0.207913 0.978147 0
    outer loop
      vertex -15.1353 -24.7658 4
      vertex -12.0679 -25.4178 1.5
      vertex -15.1353 -24.7658 1.5
    endloop
  endfacet
  facet normal 0.406724 0.913551 -0
    outer loop
      vertex -15.1353 -24.7658 1.5
      vertex -18 -23.4904 4
      vertex -15.1353 -24.7658 4
    endloop
  endfacet
  facet normal 0.406724 0.913551 0
    outer loop
      vertex -18 -23.4904 4
      vertex -15.1353 -24.7658 1.5
      vertex -18 -23.4904 1.5
    endloop
  endfacet
  facet normal 0.951057 0.309015 0
    outer loop
      vertex -24.2032 -16.601 4
      vertex -25.1722 -13.6187 1.5
      vertex -25.1722 -13.6187 4
    endloop
  endfacet
  facet normal 0.951057 0.309015 0
    outer loop
      vertex -25.1722 -13.6187 1.5
      vertex -24.2032 -16.601 4
      vertex -24.2032 -16.601 1.5
    endloop
  endfacet
  facet normal 0 0 1
    outer loop
      vertex -15.1353 24.7658 1.5
      vertex -10.5 25.4178 1.5
      vertex -12.0679 25.4178 1.5
    endloop
  endfacet
  facet normal 0 0 1
    outer loop
      vertex -10.5 25.4178 1.5
      vertex -25.5 10.5 1.5
      vertex -10.5 -25.4178 1.5
    endloop
  endfacet
  facet normal 0 0 1
    outer loop
      vertex -18 23.4904 1.5
      vertex -10.5 25.4178 1.5
      vertex -15.1353 24.7658 1.5
    endloop
  endfacet
  facet normal -0 0 1
    outer loop
      vertex -25.5 -10.5 1.5
      vertex -10.5 -25.4178 1.5
      vertex -25.5 10.5 1.5
    endloop
  endfacet
  facet normal 0 0 1
    outer loop
      vertex -10.5 25.4178 1.5
      vertex -18 23.4904 1.5
      vertex -25.5 10.5 1.5
    endloop
  endfacet
  facet normal -0 -0 1
    outer loop
      vertex -18 -23.4904 1.5
      vertex -10.5 -25.4178 1.5
      vertex -25.5 -10.5 1.5
    endloop
  endfacet
  facet normal 0 0 1
    outer loop
      vertex -25.5 10.5 1.5
      vertex -18 23.4904 1.5
      vertex -20.537 21.6472 1.5
    endloop
  endfacet
  facet normal 0 0 1
    outer loop
      vertex -10.5 -25.4178 1.5
      vertex -15.1353 -24.7658 1.5
      vertex -12.0679 -25.4178 1.5
    endloop
  endfacet
  facet normal 0 0 1
    outer loop
      vertex -25.5 10.5 1.5
      vertex -20.537 21.6472 1.5
      vertex -22.6353 19.3168 1.5
    endloop
  endfacet
  facet normal 0 0 1
    outer loop
      vertex -10.5 -25.4178 1.5
      vertex -18 -23.4904 1.5
      vertex -15.1353 -24.7658 1.5
    endloop
  endfacet
  facet normal 0 0 1
    outer loop
      vertex -25.5 10.5 1.5
      vertex -22.6353 19.3168 1.5
      vertex -24.2032 16.601 1.5
    endloop
  endfacet
  facet normal 0 0 1
    outer loop
      vertex -18 -23.4904 1.5
      vertex -25.5 -10.5 1.5
      vertex -20.537 -21.6472 1.5
    endloop
  endfacet
  facet normal 0 0 1
    outer loop
      vertex -25.5 10.5 1.5
      vertex -24.2032 16.601 1.5
      vertex -25.1722 13.6187 1.5
    endloop
  endfacet
  facet normal 0 0 1
    outer loop
      vertex -20.537 -21.6472 1.5
      vertex -25.5 -10.5 1.5
      vertex -22.6353 -19.3168 1.5
    endloop
  endfacet
  facet normal 0 0 1
    outer loop
      vertex -22.6353 -19.3168 1.5
      vertex -25.5 -10.5 1.5
      vertex -24.2032 -16.601 1.5
    endloop
  endfacet
  facet normal 0 0 1
    outer loop
      vertex -24.2032 -16.601 1.5
      vertex -25.5 -10.5 1.5
      vertex -25.1722 -13.6187 1.5
    endloop
  endfacet
  facet normal 0 0 1
    outer loop
      vertex -10.5 25.4178 1.5
      vertex 10.5 25.4178 1.5
      vertex 10.5 25.5 1.5
    endloop
  endfacet
  facet normal 0 0 1
    outer loop
      vertex 10.5 25.4178 1.5
      vertex -10.5 25.4178 1.5
      vertex 10.5 -25.4178 1.5
    endloop
  endfacet
  facet normal 0 0 1
    outer loop
      vertex -10.5 25.4178 1.5
      vertex 10.5 25.5 1.5
      vertex -10.5 25.5 1.5
    endloop
  endfacet
  facet normal 0 0 1
    outer loop
      vertex -10.5 -25.4178 1.5
      vertex 10.5 -25.4178 1.5
      vertex -10.5 25.4178 1.5
    endloop
  endfacet
  facet normal 0 0 1
    outer loop
      vertex 10.5 -25.4178 1.5
      vertex -10.5 -25.4178 1.5
      vertex 10.5 -25.5 1.5
    endloop
  endfacet
  facet normal 0 0 1
    outer loop
      vertex 10.5 -25.5 1.5
      vertex -10.5 -25.4178 1.5
      vertex -10.5 -25.5 1.5
    endloop
  endfacet
  facet normal 0 0 1
    outer loop
      vertex 10.5 25.4178 1.5
      vertex 25.5 10.5 1.5
      vertex 25.1722 13.6187 1.5
    endloop
  endfacet
  facet normal 0 0 1
    outer loop
      vertex 25.5 10.5 1.5
      vertex 10.5 25.4178 1.5
      vertex 25.5 -10.5 1.5
    endloop
  endfacet
  facet normal 0 0 1
    outer loop
      vertex 10.5 25.4178 1.5
      vertex 25.1722 13.6187 1.5
      vertex 24.2032 16.601 1.5
    endloop
  endfacet
  facet normal 0 0 1
    outer loop
      vertex 10.5 -25.4178 1.5
      vertex 25.5 -10.5 1.5
      vertex 10.5 25.4178 1.5
    endloop
  endfacet
  facet normal 0 0 1
    outer loop
      vertex 10.5 25.4178 1.5
      vertex 24.2032 16.601 1.5
      vertex 22.6353 19.3168 1.5
    endloop
  endfacet
  facet normal 0 0 1
    outer loop
      vertex 25.5 -10.5 1.5
      vertex 10.5 -25.4178 1.5
      vertex 25.1722 -13.6187 1.5
    endloop
  endfacet
  facet normal 0 0 1
    outer loop
      vertex 10.5 25.4178 1.5
      vertex 22.6353 19.3168 1.5
      vertex 20.537 21.6472 1.5
    endloop
  endfacet
  facet normal 0 0 1
    outer loop
      vertex 25.1722 -13.6187 1.5
      vertex 10.5 -25.4178 1.5
      vertex 24.2032 -16.601 1.5
    endloop
  endfacet
  facet normal 0 0 1
    outer loop
      vertex 10.5 25.4178 1.5
      vertex 20.537 21.6472 1.5
      vertex 18 23.4904 1.5
    endloop
  endfacet
  facet normal 0 0 1
    outer loop
      vertex 24.2032 -16.601 1.5
      vertex 10.5 -25.4178 1.5
      vertex 22.6353 -19.3168 1.5
    endloop
  endfacet
  facet normal 0 0 1
    outer loop
      vertex 10.5 25.4178 1.5
      vertex 18 23.4904 1.5
      vertex 15.1353 24.7658 1.5
    endloop
  endfacet
  facet normal 0 0 1
    outer loop
      vertex 22.6353 -19.3168 1.5
      vertex 10.5 -25.4178 1.5
      vertex 20.537 -21.6472 1.5
    endloop
  endfacet
  facet normal -0 0 1
    outer loop
      vertex 10.5 25.4178 1.5
      vertex 15.1353 24.7658 1.5
      vertex 12.0679 25.4178 1.5
    endloop
  endfacet
  facet normal 0 0 1
    outer loop
      vertex 20.537 -21.6472 1.5
      vertex 10.5 -25.4178 1.5
      vertex 18 -23.4904 1.5
    endloop
  endfacet
  facet normal 0 0 1
    outer loop
      vertex 18 -23.4904 1.5
      vertex 10.5 -25.4178 1.5
      vertex 15.1353 -24.7658 1.5
    endloop
  endfacet
  facet normal 0 0 1
    outer loop
      vertex 15.1353 -24.7658 1.5
      vertex 10.5 -25.4178 1.5
      vertex 12.0679 -25.4178 1.5
    endloop
  endfacet
  facet normal 0 1 -0
    outer loop
      vertex -10.5 -25.4178 1.5
      vertex -12.0679 -25.4178 4
      vertex -10.5 -25.4178 4
    endloop
  endfacet
  facet normal 0 1 0
    outer loop
      vertex -12.0679 -25.4178 4
      vertex -10.5 -25.4178 1.5
      vertex -12.0679 -25.4178 1.5
    endloop
  endfacet
  facet normal 0.743145 0.66913 0
    outer loop
      vertex -20.537 -21.6472 4
      vertex -22.6353 -19.3168 1.5
      vertex -22.6353 -19.3168 4
    endloop
  endfacet
  facet normal 0.743145 0.66913 0
    outer loop
      vertex -22.6353 -19.3168 1.5
      vertex -20.537 -21.6472 4
      vertex -20.537 -21.6472 1.5
    endloop
  endfacet
  facet normal 0 -1 0
    outer loop
      vertex -12.0679 25.4178 1.5
      vertex -10.5 25.4178 4
      vertex -12.0679 25.4178 4
    endloop
  endfacet
  facet normal 0 -1 -0
    outer loop
      vertex -10.5 25.4178 4
      vertex -12.0679 25.4178 1.5
      vertex -10.5 25.4178 1.5
    endloop
  endfacet
  facet normal 0.743145 -0.66913 0
    outer loop
      vertex -22.6353 19.3168 4
      vertex -20.537 21.6472 1.5
      vertex -20.537 21.6472 4
    endloop
  endfacet
  facet normal 0.743145 -0.66913 0
    outer loop
      vertex -20.537 21.6472 1.5
      vertex -22.6353 19.3168 4
      vertex -22.6353 19.3168 1.5
    endloop
  endfacet
  facet normal 0.406724 -0.913551 0
    outer loop
      vertex -18 23.4904 1.5
      vertex -15.1353 24.7658 4
      vertex -18 23.4904 4
    endloop
  endfacet
  facet normal 0.406724 -0.913551 0
    outer loop
      vertex -15.1353 24.7658 4
      vertex -18 23.4904 1.5
      vertex -15.1353 24.7658 1.5
    endloop
  endfacet
  facet normal 0.587777 -0.809023 0
    outer loop
      vertex -20.537 21.6472 1.5
      vertex -18 23.4904 4
      vertex -20.537 21.6472 4
    endloop
  endfacet
  facet normal 0.587777 -0.809023 0
    outer loop
      vertex -18 23.4904 4
      vertex -20.537 21.6472 1.5
      vertex -18 23.4904 1.5
    endloop
  endfacet
  facet normal 0.951057 -0.309015 0
    outer loop
      vertex -25.1722 13.6187 4
      vertex -24.2032 16.601 1.5
      vertex -24.2032 16.601 4
    endloop
  endfacet
  facet normal 0.951057 -0.309015 0
    outer loop
      vertex -24.2032 16.601 1.5
      vertex -25.1722 13.6187 4
      vertex -25.1722 13.6187 1.5
    endloop
  endfacet
  facet normal 0.994522 -0.104532 0
    outer loop
      vertex -25.5 10.5 4
      vertex -25.1722 13.6187 1.5
      vertex -25.1722 13.6187 4
    endloop
  endfacet
  facet normal 0.994522 -0.104532 0
    outer loop
      vertex -25.1722 13.6187 1.5
      vertex -25.5 10.5 4
      vertex -25.5 10.5 1.5
    endloop
  endfacet
  facet normal 0.207913 -0.978147 0
    outer loop
      vertex -15.1353 24.7658 1.5
      vertex -12.0679 25.4178 4
      vertex -15.1353 24.7658 4
    endloop
  endfacet
  facet normal 0.207913 -0.978147 0
    outer loop
      vertex -12.0679 25.4178 4
      vertex -15.1353 24.7658 1.5
      vertex -12.0679 25.4178 1.5
    endloop
  endfacet
  facet normal 0.866035 -0.499984 0
    outer loop
      vertex -24.2032 16.601 4
      vertex -22.6353 19.3168 1.5
      vertex -22.6353 19.3168 4
    endloop
  endfacet
  facet normal 0.866035 -0.499984 0
    outer loop
      vertex -22.6353 19.3168 1.5
      vertex -24.2032 16.601 4
      vertex -24.2032 16.601 1.5
    endloop
  endfacet
  facet normal -0.951057 0.309015 0
    outer loop
      vertex 24.2032 -16.601 1.5
      vertex 25.1722 -13.6187 4
      vertex 25.1722 -13.6187 1.5
    endloop
  endfacet
  facet normal -0.951057 0.309015 0
    outer loop
      vertex 25.1722 -13.6187 4
      vertex 24.2032 -16.601 1.5
      vertex 24.2032 -16.601 4
    endloop
  endfacet
  facet normal -0.866035 0.499984 0
    outer loop
      vertex 22.6353 -19.3168 1.5
      vertex 24.2032 -16.601 4
      vertex 24.2032 -16.601 1.5
    endloop
  endfacet
  facet normal -0.866035 0.499984 0
    outer loop
      vertex 24.2032 -16.601 4
      vertex 22.6353 -19.3168 1.5
      vertex 22.6353 -19.3168 4
    endloop
  endfacet
  facet normal -0.994522 0.104532 0
    outer loop
      vertex 25.1722 -13.6187 1.5
      vertex 25.5 -10.5 4
      vertex 25.5 -10.5 1.5
    endloop
  endfacet
  facet normal -0.994522 0.104532 0
    outer loop
      vertex 25.5 -10.5 4
      vertex 25.1722 -13.6187 1.5
      vertex 25.1722 -13.6187 4
    endloop
  endfacet
  facet normal -0.743145 0.66913 0
    outer loop
      vertex 20.537 -21.6472 1.5
      vertex 22.6353 -19.3168 4
      vertex 22.6353 -19.3168 1.5
    endloop
  endfacet
  facet normal -0.743145 0.66913 0
    outer loop
      vertex 22.6353 -19.3168 4
      vertex 20.537 -21.6472 1.5
      vertex 20.537 -21.6472 4
    endloop
  endfacet
  facet normal -0.207913 0.978147 0
    outer loop
      vertex 15.1353 -24.7658 1.5
      vertex 12.0679 -25.4178 4
      vertex 15.1353 -24.7658 4
    endloop
  endfacet
  facet normal -0.207913 0.978147 0
    outer loop
      vertex 12.0679 -25.4178 4
      vertex 15.1353 -24.7658 1.5
      vertex 12.0679 -25.4178 1.5
    endloop
  endfacet
  facet normal -0.587777 0.809023 0
    outer loop
      vertex 20.537 -21.6472 1.5
      vertex 18 -23.4904 4
      vertex 20.537 -21.6472 4
    endloop
  endfacet
  facet normal -0.587777 0.809023 0
    outer loop
      vertex 18 -23.4904 4
      vertex 20.537 -21.6472 1.5
      vertex 18 -23.4904 1.5
    endloop
  endfacet
  facet normal -0.406724 0.913551 0
    outer loop
      vertex 18 -23.4904 1.5
      vertex 15.1353 -24.7658 4
      vertex 18 -23.4904 4
    endloop
  endfacet
  facet normal -0.406724 0.913551 0
    outer loop
      vertex 15.1353 -24.7658 4
      vertex 18 -23.4904 1.5
      vertex 15.1353 -24.7658 1.5
    endloop
  endfacet
  facet normal 0 1 -0
    outer loop
      vertex 12.0679 -25.4178 1.5
      vertex 10.5 -25.4178 4
      vertex 12.0679 -25.4178 4
    endloop
  endfacet
  facet normal 0 1 0
    outer loop
      vertex 10.5 -25.4178 4
      vertex 12.0679 -25.4178 1.5
      vertex 10.5 -25.4178 1.5
    endloop
  endfacet
  facet normal -0.951057 -0.309015 0
    outer loop
      vertex 25.1722 13.6187 1.5
      vertex 24.2032 16.601 4
      vertex 24.2032 16.601 1.5
    endloop
  endfacet
  facet normal -0.951057 -0.309015 0
    outer loop
      vertex 24.2032 16.601 4
      vertex 25.1722 13.6187 1.5
      vertex 25.1722 13.6187 4
    endloop
  endfacet
  facet normal -0.994522 -0.104532 0
    outer loop
      vertex 25.5 10.5 1.5
      vertex 25.1722 13.6187 4
      vertex 25.1722 13.6187 1.5
    endloop
  endfacet
  facet normal -0.994522 -0.104532 0
    outer loop
      vertex 25.1722 13.6187 4
      vertex 25.5 10.5 1.5
      vertex 25.5 10.5 4
    endloop
  endfacet
  facet normal -0.866035 -0.499984 0
    outer loop
      vertex 24.2032 16.601 1.5
      vertex 22.6353 19.3168 4
      vertex 22.6353 19.3168 1.5
    endloop
  endfacet
  facet normal -0.866035 -0.499984 0
    outer loop
      vertex 22.6353 19.3168 4
      vertex 24.2032 16.601 1.5
      vertex 24.2032 16.601 4
    endloop
  endfacet
  facet normal -0.207913 -0.978147 0
    outer loop
      vertex 12.0679 25.4178 1.5
      vertex 15.1353 24.7658 4
      vertex 12.0679 25.4178 4
    endloop
  endfacet
  facet normal -0.207913 -0.978147 -0
    outer loop
      vertex 15.1353 24.7658 4
      vertex 12.0679 25.4178 1.5
      vertex 15.1353 24.7658 1.5
    endloop
  endfacet
  facet normal 0 -1 0
    outer loop
      vertex 10.5 25.4178 1.5
      vertex 12.0679 25.4178 4
      vertex 10.5 25.4178 4
    endloop
  endfacet
  facet normal 0 -1 -0
    outer loop
      vertex 12.0679 25.4178 4
      vertex 10.5 25.4178 1.5
      vertex 12.0679 25.4178 1.5
    endloop
  endfacet
  facet normal -0.743145 -0.66913 0
    outer loop
      vertex 22.6353 19.3168 1.5
      vertex 20.537 21.6472 4
      vertex 20.537 21.6472 1.5
    endloop
  endfacet
  facet normal -0.743145 -0.66913 0
    outer loop
      vertex 20.537 21.6472 4
      vertex 22.6353 19.3168 1.5
      vertex 22.6353 19.3168 4
    endloop
  endfacet
  facet normal -0.587777 -0.809023 0
    outer loop
      vertex 18 23.4904 1.5
      vertex 20.537 21.6472 4
      vertex 18 23.4904 4
    endloop
  endfacet
  facet normal -0.587777 -0.809023 -0
    outer loop
      vertex 20.537 21.6472 4
      vertex 18 23.4904 1.5
      vertex 20.537 21.6472 1.5
    endloop
  endfacet
  facet normal -0.406724 -0.913551 0
    outer loop
      vertex 15.1353 24.7658 1.5
      vertex 18 23.4904 4
      vertex 15.1353 24.7658 4
    endloop
  endfacet
  facet normal -0.406724 -0.913551 -0
    outer loop
      vertex 18 23.4904 4
      vertex 15.1353 24.7658 1.5
      vertex 18 23.4904 1.5
    endloop
  endfacet
  facet normal -1 0 0
    outer loop
      vertex 10.5 25.4178 1.5
      vertex 10.5 25.5 4
      vertex 10.5 25.5 1.5
    endloop
  endfacet
  facet normal -1 -0 0
    outer loop
      vertex 10.5 25.5 4
      vertex 10.5 25.4178 1.5
      vertex 10.5 25.4178 4
    endloop
  endfacet
  facet normal -1 0 0
    outer loop
      vertex 10.5 -25.5 1.5
      vertex 10.5 -25.4178 4
      vertex 10.5 -25.4178 1.5
    endloop
  endfacet
  facet normal -1 -0 0
    outer loop
      vertex 10.5 -25.4178 4
      vertex 10.5 -25.5 1.5
      vertex 10.5 -25.5 4
    endloop
  endfacet
  facet normal 1 -0 0
    outer loop
      vertex -10.5 25.4178 4
      vertex -10.5 25.5 1.5
      vertex -10.5 25.5 4
    endloop
  endfacet
  facet normal 1 0 0
    outer loop
      vertex -10.5 25.5 1.5
      vertex -10.5 25.4178 4
      vertex -10.5 25.4178 1.5
    endloop
  endfacet
  facet normal 1 -0 0
    outer loop
      vertex -10.5 -25.5 4
      vertex -10.5 -25.4178 1.5
      vertex -10.5 -25.4178 4
    endloop
  endfacet
  facet normal 1 0 0
    outer loop
      vertex -10.5 -25.4178 1.5
      vertex -10.5 -25.5 4
      vertex -10.5 -25.5 1.5
    endloop
  endfacet
  facet normal 0 -1 0
    outer loop
      vertex -10.5 25.5 1.5
      vertex 10.5 25.5 4
      vertex -10.5 25.5 4
    endloop
  endfacet
  facet normal 0 -1 -0
    outer loop
      vertex 10.5 25.5 4
      vertex -10.5 25.5 1.5
      vertex 10.5 25.5 1.5
    endloop
  endfacet
  facet normal 0 1 -0
    outer loop
      vertex 10.5 -25.5 1.5
      vertex -10.5 -25.5 4
      vertex 10.5 -25.5 4
    endloop
  endfacet
  facet normal 0 1 0
    outer loop
      vertex -10.5 -25.5 4
      vertex 10.5 -25.5 1.5
      vertex -10.5 -25.5 1.5
    endloop
  endfacet
  facet normal -1 0 0
    outer loop
      vertex 25.5 -10.5 1.5
      vertex 25.5 10.5 4
      vertex 25.5 10.5 1.5
    endloop
  endfacet
  facet normal -1 -0 0
    outer loop
      vertex 25.5 10.5 4
      vertex 25.5 -10.5 1.5
      vertex 25.5 -10.5 4
    endloop
  endfacet
  facet normal 1 -0 0
    outer loop
      vertex -25.5 -10.5 4
      vertex -25.5 10.5 1.5
      vertex -25.5 10.5 4
    endloop
  endfacet
  facet normal 1 0 0
    outer loop
      vertex -25.5 10.5 1.5
      vertex -25.5 -10.5 4
      vertex -25.5 -10.5 1.5
    endloop
  endfacet
endsolid OpenSCAD_Model
